<?xml version="1.0" encoding="utf-8"?>
<!-- Generator: Adobe Illustrator 16.0.0, SVG Export Plug-In . SVG Version: 6.00 Build 0)  -->
<!DOCTYPE svg PUBLIC "-//W3C//DTD SVG 1.1//EN" "http://www.w3.org/Graphics/SVG/1.1/DTD/svg11.dtd">
<svg version="1.1" id="Layer_1" xmlns="http://www.w3.org/2000/svg" xmlns:xlink="http://www.w3.org/1999/xlink" x="0px" y="0px"
	 width="50px" height="50px" viewBox="0 0 50 50" enable-background="new 0 0 50 50" xml:space="preserve">
<g>
	<g id="XMLID_1_">
		<g>
			<path d="M3.118,32.043c0.331-0.293,0.638-0.564,0.945-0.836c0.71-0.63,1.425-1.256,2.235-1.757
				c0.771-0.479,1.598-0.811,2.504-0.923c0.854-0.107,1.707-0.051,2.541,0.141c1.06,0.243,2.109,0.537,3.162,0.813
				c0.322,0.084,0.64,0.181,0.96,0.272c0.007-0.019,0.014-0.036,0.021-0.055c-0.655-0.424-1.299-0.866-1.969-1.265
				c-1.02-0.608-2.054-1.189-3.088-1.771c-0.29-0.163-0.505-0.356-0.548-0.711C9.858,25.771,9.759,25.703,9.57,25.7
				c-0.146-0.002-0.3-0.002-0.437,0.043c-0.36,0.114-0.714,0.25-1.068,0.386c-0.304,0.119-0.607,0.255-0.938,0.229
				c-0.417-0.029-0.739,0.137-1.019,0.418c-0.666,0.673-1.462,1.176-2.235,1.705c-0.27,0.186-0.397,0.42-0.504,0.707
				c-0.109,0.291-0.06,0.557,0.035,0.832c0.036,0.104,0.063,0.209,0.096,0.314c-0.013,0.007-0.027,0.013-0.04,0.019
				c-0.091-0.172-0.18-0.343-0.271-0.516c-0.013,0.004-0.027,0.006-0.04,0.01c-0.014,0.293-0.029,0.589-0.043,0.88
				c-0.012-0.007-0.033-0.016-0.072-0.034c0.062,0.342,0.119,0.665,0.181,1.016c-0.066-0.07-0.113-0.12-0.189-0.198
				C3.061,31.703,3.087,31.859,3.118,32.043z M44.398,25.584c-0.304-0.341-0.536-0.389-0.935-0.168
				c-0.046,0.024-0.087,0.056-0.132,0.077c-0.227,0.1-0.446,0.219-0.681,0.291c-0.354,0.108-0.721,0.168-1.073,0.274
				c-0.471,0.14-0.835,0.398-0.953,0.922c-0.061,0.268-0.237,0.468-0.484,0.595c-0.397,0.204-0.787,0.421-1.192,0.604
				c-1.013,0.458-2.011,0.941-2.939,1.557c-0.145,0.096-0.317,0.16-0.482,0.219c-0.35,0.12-0.707,0.215-1.055,0.34
				c-0.168,0.061-0.316,0.166-0.476,0.25c0.013,0.028,0.025,0.057,0.036,0.084c0.664-0.189,1.339-0.358,1.994-0.577
				c1.099-0.366,2.185-0.774,3.284-1.144c0.793-0.268,1.609-0.451,2.45-0.499c1.105-0.061,2.143,0.196,3.119,0.709
				c0.924,0.489,1.734,1.141,2.534,1.809c0.052,0.043,0.104,0.084,0.177,0.143c0-0.242,0-0.446,0-0.673
				c-0.038,0.041-0.058,0.063-0.061,0.066c-0.032-0.327-0.064-0.664-0.1-1c-0.017-0.001-0.034-0.002-0.051-0.002
				c-0.048,0.1-0.096,0.198-0.143,0.296c0.013-0.356,0.013-0.698-0.1-1.067c-0.054,0.075-0.086,0.122-0.105,0.148
				c-0.09-0.345-0.179-0.7-0.275-1.054c-0.014-0.047-0.052-0.107-0.093-0.123c-0.352-0.127-0.648-0.341-0.903-0.603
				C45.295,26.577,44.847,26.081,44.398,25.584z M2.849,39.681c-0.069-0.063-0.126-0.114-0.182-0.166
				c-0.021,0.139-0.044,0.278-0.067,0.417c-0.017,0.008-0.033,0.015-0.049,0.021c-0.106-0.086-0.211-0.173-0.316-0.261
				c-0.014,0.073-0.029,0.16-0.052,0.282c-0.117-0.346-0.221-0.653-0.337-1c-0.031,0.119-0.052,0.197-0.076,0.294
				c-0.112-0.391-0.217-0.757-0.334-1.164c-0.053,0.116-0.086,0.188-0.117,0.252c-0.041-0.325-0.082-0.648-0.126-0.993
				C1.116,37.458,1.058,37.53,1,37.602c0-0.02,0-0.041,0-0.062c0.02-0.169,0.043-0.338,0.059-0.508
				c0.063-0.671,0.122-1.343,0.184-2.015c0.003-0.035,0.007-0.07,0.017-0.104c0.054-0.19,0.077-0.374,0.027-0.576
				c-0.052-0.215,0.03-0.428,0.164-0.598c0.149-0.192,0.32-0.366,0.485-0.545c0.188-0.205,0.391-0.399,0.564-0.614
				c0.134-0.166,0.189-0.369,0.104-0.597c-0.042,0.112-0.082,0.215-0.13,0.342c-0.058-0.423-0.112-0.815-0.171-1.254
				c-0.06,0.089-0.094,0.14-0.142,0.215c0-0.245,0.028-0.465-0.006-0.674c-0.082-0.509-0.052-1.02-0.066-1.528
				c-0.009-0.327,0.029-0.657,0.067-0.982c0.023-0.196,0.12-0.367,0.321-0.449c0.023-0.009,0.048-0.04,0.053-0.064
				c0.076-0.381,0.311-0.666,0.598-0.894c1.227-0.983,2.541-1.818,4.072-2.248c1.093-0.309,2.158-0.227,3.203,0.244
				c1.427,0.642,2.811,1.363,4.152,2.163c0.389,0.23,0.715,0.566,1.08,0.838c0.337,0.25,0.68,0.498,1.039,0.715
				c0.275,0.167,0.589,0.244,0.92,0.178c0.054-0.01,0.106-0.025,0.188-0.048c-0.176-0.532-0.343-1.056-0.522-1.575
				c-0.088-0.252-0.276-0.377-0.553-0.354c-0.117,0.011-0.234,0.001-0.351,0.014c-0.289,0.025-0.541-0.059-0.767-0.233
				c-0.04-0.03-0.083-0.06-0.122-0.092c-0.212-0.182-0.448-0.287-0.736-0.32c-0.601-0.068-1.112-0.364-1.595-0.708
				c-0.586-0.417-1.091-0.912-1.432-1.555c-0.206-0.389-0.363-0.818-0.185-1.239c0.299-0.708,0.23-1.424,0.149-2.143
				c-0.117-1.058,0.051-2.083,0.316-3.099c0.174-0.669,0.393-1.332,0.79-1.9c0.731-1.045,1.606-1.962,2.652-2.706
				c0.29-0.207,0.601-0.379,0.958-0.446c0.251-0.047,0.484-0.016,0.689,0.185c-0.036,0.05-0.067,0.099-0.102,0.146
				c-0.678,0.88-1.368,1.751-2.027,2.645c-0.221,0.298-0.373,0.648-0.542,0.981c-0.049,0.097-0.106,0.222-0.002,0.327
				c0.11,0.111,0.252,0.118,0.381,0.057c0.223-0.106,0.452-0.21,0.651-0.353c0.687-0.486,1.267-1.093,1.858-1.687
				c0.272-0.273,0.542-0.551,0.817-0.821c0.136-0.133,0.165-0.127,0.289,0.018c0.187,0.219,0.187,0.476,0.132,0.735
				c-0.09,0.439-0.305,0.827-0.551,1.193c-0.315,0.467-0.633,0.933-0.981,1.375c-0.344,0.434-0.481,0.917-0.485,1.455
				c-0.001,0.325,0.003,0.65-0.002,0.976c-0.005,0.361-0.094,0.701-0.274,1.017c-0.034,0.061-0.063,0.127-0.102,0.186
				c-0.291,0.429-0.288,0.879-0.12,1.351c0.153,0.434,0.344,0.847,0.649,1.195c0.426,0.486,0.971,0.504,1.43,0.043
				c0.15-0.149,0.289-0.313,0.438-0.465c0.224-0.233,0.484-0.375,0.827-0.334c0.065,0.008,0.159-0.057,0.209-0.113
				c0.062-0.07,0.091-0.168,0.136-0.254c0.141-0.276,0.276-0.322,0.569-0.223c0.316,0.107,0.638,0.198,0.958,0.292
				c0.056,0.018,0.118,0.015,0.18,0.023c-0.064-0.346-0.229-0.6-0.51-0.792c-0.271-0.185-0.375-0.463-0.321-0.785
				c0.076-0.445,0.433-0.688,0.878-0.61c0.084,0.014,0.168,0.038,0.25,0.063c0.508,0.169,0.804,0.501,0.834,1.055
				c0.01,0.176,0.018,0.398,0.123,0.503c0.087,0.088,0.315,0.052,0.481,0.046c1.07-0.029,2.141-0.075,3.212-0.097
				c0.425-0.009,0.851,0.036,1.276,0.049c0.15,0.004,0.306,0.002,0.454-0.021c0.257-0.042,0.403-0.209,0.459-0.465
				c0.048-0.221,0.087-0.451,0.175-0.657c0.248-0.572,0.968-0.807,1.52-0.513c0.173,0.09,0.268,0.257,0.205,0.445
				c-0.073,0.224-0.175,0.442-0.285,0.651c-0.125,0.237-0.277,0.459-0.405,0.696c-0.038,0.073-0.068,0.207-0.029,0.25
				c0.049,0.057,0.174,0.081,0.258,0.065c0.223-0.042,0.44-0.109,0.658-0.171c0.122-0.035,0.238-0.082,0.361-0.116
				c0.229-0.066,0.427,0,0.58,0.171c0.129,0.146,0.232,0.314,0.352,0.479c0.045-0.059,0.09-0.128,0.146-0.189
				c0.142-0.153,0.304-0.181,0.457-0.042c0.154,0.137,0.282,0.303,0.413,0.463c0.102,0.126,0.162,0.324,0.287,0.378
				c0.116,0.05,0.295-0.058,0.448-0.086c0.379-0.067,0.761-0.12,1.138-0.196c0.42-0.084,0.755-0.313,1.009-0.656
				c0.181-0.244,0.355-0.495,0.536-0.739c0.237-0.317,0.237-0.638,0.085-1c-0.302-0.707-0.576-1.427-0.852-2.145
				c-0.196-0.518-0.252-1.068-0.257-1.614c-0.009-0.923-0.261-1.762-0.729-2.555c-0.571-0.97-1.079-1.974-1.427-3.05
				c-0.111-0.347-0.213-0.702-0.261-1.061C32.86,9.36,32.936,8.84,33.102,8.339c0.025-0.076,0.107-0.178,0.17-0.184
				s0.162,0.083,0.196,0.154c0.224,0.459,0.438,0.924,0.65,1.389c0.395,0.866,0.776,1.738,1.184,2.598
				c0.125,0.262,0.309,0.501,0.482,0.737c0.078,0.106,0.192,0.196,0.309,0.265c0.175,0.105,0.319,0.052,0.418-0.127
				c0.151-0.276,0.162-0.573,0.116-0.874c-0.114-0.759-0.47-1.419-0.859-2.063c-0.259-0.425-0.524-0.844-0.785-1.267
				c-0.191-0.312-0.422-0.578-0.761-0.748c-0.183-0.093-0.355-0.214-0.53-0.327c-0.066-0.044-0.136-0.091-0.189-0.15
				c-0.038-0.044-0.056-0.11-0.082-0.167c0.057-0.024,0.112-0.069,0.171-0.069c0.099,0,0.2,0.02,0.297,0.046
				c0.723,0.196,1.399,0.514,2.067,0.839c0.821,0.399,1.495,0.993,2.118,1.642c1.446,1.502,2.485,3.239,2.968,5.28
				c0.448,1.896,0.379,3.771-0.313,5.608c-0.189,0.498-0.452,0.952-0.823,1.34c-0.214,0.227-0.302,0.515-0.298,0.811
				c0.018,1.222-1.336,2.568-2.394,2.725c-0.389,0.059-0.778,0.092-1.16,0.173c-0.263,0.056-0.53,0.144-0.767,0.271
				c-0.63,0.335-0.696,0.372-1.375,0.432c-0.089,0.392-0.164,0.783-0.268,1.168c-0.107,0.387-0.291,0.742-0.545,1.059
				c0.006,0.017,0.013,0.032,0.019,0.05c0.264-0.058,0.53-0.097,0.787-0.175c0.668-0.198,1.263-0.555,1.832-0.943
				c1.064-0.729,2.186-1.365,3.323-1.966c0.252-0.132,0.539-0.207,0.816-0.273c0.192-0.047,0.337-0.142,0.446-0.291
				c0.539-0.746,1.317-1.146,2.141-1.462c0.913-0.347,1.797-0.211,2.633,0.264c0.832,0.472,1.58,1.056,2.184,1.802
				c0.153,0.189,0.248,0.427,0.357,0.648c0.076,0.153,0.125,0.32,0.194,0.478c0.177,0.397,0.357,0.792,0.534,1.182
				c-0.025-0.01-0.077-0.03-0.177-0.066c0.067,0.314,0.13,0.602,0.19,0.885c-0.018-0.008-0.048-0.021-0.114-0.051
				c0.052,0.284,0.097,0.542,0.144,0.8c-0.029-0.028-0.07-0.063-0.146-0.132c0.046,0.388,0.082,0.737,0.128,1.124
				c-0.082-0.12-0.149-0.215-0.221-0.318c-0.049,0.193-0.111,0.386-0.148,0.584c-0.011,0.061,0.028,0.141,0.067,0.196
				c0.17,0.239,0.342,0.477,0.523,0.708c0.146,0.193,0.314,0.372,0.457,0.57c0.174,0.246,0.275,0.517,0.191,0.83
				c-0.011,0.036,0.007,0.09,0.028,0.126c0.243,0.369,0.316,0.785,0.33,1.215c0.015,0.411,0.017,0.822,0.036,1.233
				c0.007,0.126,0.059,0.251,0.089,0.376c0,0.041,0,0.082,0,0.123c-0.065-0.084-0.128-0.168-0.225-0.296
				c-0.032,0.368-0.063,0.698-0.091,1.024c-0.027-0.051-0.063-0.119-0.12-0.229c-0.091,0.417-0.175,0.798-0.264,1.214
				c-0.043-0.116-0.077-0.213-0.122-0.338c-0.117,0.359-0.229,0.702-0.339,1.046c-0.009,0.001-0.015,0.003-0.021,0.006
				c-0.009-0.095-0.02-0.188-0.028-0.276c-0.084,0.071-0.172,0.146-0.263,0.222c-0.017-0.004-0.036-0.008-0.054-0.012
				c-0.03-0.137-0.059-0.272-0.086-0.401c-0.037,0.045-0.084,0.105-0.134,0.166c-0.011-0.01-0.023-0.02-0.037-0.03
				c0.11-0.372,0.22-0.744,0.33-1.114c-0.013-0.009-0.025-0.018-0.039-0.026c-0.023,0.037-0.047,0.073-0.09,0.14
				c0.093-0.381,0.174-0.725,0.256-1.068c-0.013-0.003-0.023-0.008-0.034-0.012c-0.048,0.049-0.093,0.096-0.132,0.136
				c0.05-0.292,0.102-0.59,0.153-0.887c-0.013-0.004-0.023-0.01-0.034-0.016c-0.026,0.038-0.052,0.076-0.078,0.112
				c-0.013-0.006-0.025-0.013-0.038-0.02c0.006-0.064,0.019-0.129,0.021-0.193c0.015-0.473-0.057-0.932-0.235-1.369
				c-0.034-0.083-0.107-0.159-0.181-0.213c-0.576-0.437-1.151-0.869-1.73-1.297c-0.305-0.224-0.541-0.503-0.725-0.83
				c-0.021-0.04-0.045-0.079-0.069-0.119c-0.491-0.856-0.491-0.857-1.4-1.224c-0.386-0.155-0.773-0.306-1.159-0.455
				c-0.209-0.081-0.425-0.056-0.628,0.01c-0.271,0.085-0.543,0.171-0.797,0.296c-0.761,0.373-1.561,0.63-2.38,0.855
				c-0.965,0.264-1.941,0.397-2.929,0.512c-0.625,0.072-1.248,0.156-1.845,0.367c-0.198,0.071-0.384,0.185-0.575,0.279
				c0.009,0.02,0.015,0.041,0.021,0.061c0.261-0.026,0.52-0.056,0.778-0.082c1.174-0.128,2.347-0.255,3.523-0.381
				c0.248-0.026,0.482,0.022,0.709,0.122c0.104,0.046,0.205,0.093,0.302,0.145c0.181,0.096,0.359,0.118,0.569,0.08
				c0.726-0.13,1.454-0.115,2.177,0.049c0.689,0.155,1.232,0.549,1.693,1.071c0.054,0.061,0.132,0.112,0.207,0.143
				c0.561,0.222,1.112,0.467,1.604,0.825c0.161,0.118,0.319,0.259,0.434,0.42c0.493,0.692,0.909,1.427,1.254,2.203
				c0.052,0.118,0.082,0.245,0.123,0.368c-0.013,0.01-0.026,0.021-0.039,0.032c-0.077-0.045-0.157-0.091-0.273-0.157
				c0.105,0.375,0.204,0.729,0.304,1.08c-0.007,0.009-0.013,0.017-0.021,0.026c-0.067-0.08-0.136-0.162-0.218-0.259
				c0,0.408,0,0.789,0,1.164c-0.013-0.021-0.039-0.055-0.063-0.089c-0.013,0-0.023,0-0.034,0c-0.028,0.456-0.055,0.913-0.084,1.396
				c-0.076-0.119-0.145-0.227-0.218-0.344c-0.151,0.201-0.296,0.393-0.459,0.611c0.157-1.035,0.193-2.022-0.188-3.005
				c-0.041,0.113-0.071,0.2-0.104,0.288c-0.014,0.025-0.035,0.046-0.054,0.073c-0.063-0.321-0.121-0.631-0.186-0.973
				c-0.054,0.116-0.098,0.206-0.141,0.296c-0.015-0.004-0.03-0.007-0.045-0.01c-0.016-0.168-0.026-0.339-0.052-0.505
				c-0.02-0.125-0.05-0.25-0.095-0.366c-0.061-0.159-0.179-0.269-0.347-0.314c-1.089-0.299-2.041-0.854-2.93-1.537
				c-0.334-0.255-0.695-0.474-1.045-0.709c-0.643-0.429-1.332-0.505-2.064-0.288c-0.541,0.16-1.093,0.297-1.662,0.22
				c-0.607-0.082-1.215-0.11-1.823-0.079c-0.547,0.027-1.093,0.083-1.638,0.128c-0.034,0.003-0.066,0.016-0.104,0.052
				c0.446,0.082,0.891,0.171,1.339,0.242c0.62,0.099,1.247,0.154,1.861,0.29c0.282,0.063,0.537,0.268,0.804,0.406
				c0.048,0.025,0.11,0.056,0.153,0.045c0.293-0.08,0.557-0.028,0.814,0.127c0.641,0.384,1.184,0.879,1.646,1.455
				c0.582,0.722,1.128,1.476,1.684,2.217c0.045,0.06,0.066,0.137,0.093,0.206c0.194,0.499,0.386,0.997,0.586,1.518
				c-0.09-0.058-0.17-0.109-0.284-0.181c0.125,0.353,0.239,0.678,0.354,1.003c-0.011,0.011-0.023,0.021-0.034,0.03
				c-0.069-0.069-0.136-0.139-0.21-0.212c0.048,0.321,0.096,0.658,0.149,1.041c-0.08-0.12-0.138-0.204-0.214-0.318
				c-0.034,0.345-0.066,0.668-0.101,1.022c-0.063-0.1-0.114-0.185-0.188-0.299c-0.098,0.282-0.188,0.541-0.276,0.789
				c-0.004-0.025-0.009-0.069-0.013-0.097c-0.13,0.116-0.263,0.236-0.409,0.368c-0.134-0.196-0.11-0.375-0.071-0.559
				c-0.032,0.014-0.057,0.024-0.082,0.035c0.079-0.225,0.188-0.442,0.232-0.671c0.067-0.315,0.089-0.641,0.132-0.98
				c-0.05,0.019-0.073,0.026-0.084,0.029c-0.032-0.253-0.067-0.503-0.1-0.753c-0.011-0.002-0.023-0.005-0.034-0.007
				c-0.023,0.06-0.048,0.119-0.069,0.179c-0.299-0.773-0.836-1.385-1.347-2.01c-0.571-0.699-1.162-1.382-1.752-2.067
				c-0.377-0.439-0.891-0.657-1.436-0.771c-0.6-0.124-1.209-0.204-1.816-0.277c-0.589-0.069-1.184-0.088-1.772-0.168
				c-0.254-0.033-0.5-0.154-0.743-0.252c-0.765-0.31-1.521-0.638-2.293-0.934c-0.23-0.09-0.491-0.111-0.741-0.138
				c-0.177-0.02-0.321,0.057-0.41,0.23c-0.095,0.187-0.271,0.296-0.467,0.339c-0.3,0.067-0.606,0.127-0.911,0.148
				c-0.369,0.026-0.742,0.026-1.111,0.001c-0.185-0.013-0.368-0.096-0.545-0.167c-0.153-0.061-0.277-0.106-0.422,0.039
				c-0.078,0.077-0.217,0.125-0.331,0.131c-0.668,0.041-1.338,0.08-2.005-0.029c-0.263-0.044-0.504-0.14-0.727-0.291
				c-0.111-0.076-0.258-0.115-0.393-0.133c-0.149-0.019-0.305,0.019-0.456,0.009c-0.143-0.01-0.31-0.013-0.423-0.088
				c-0.25-0.159-0.5-0.151-0.761-0.084c-0.391,0.102-0.784,0.207-1.17,0.327c-0.411,0.128-0.832,0.182-1.257,0.193
				c-0.796,0.021-1.594,0.026-2.392,0.036c-0.334,0.003-0.669-0.016-1.002,0.004c-0.309,0.018-0.575,0.145-0.772,0.399
				c-0.391,0.506-0.832,0.979-1.17,1.517c-0.3,0.475-0.663,0.878-1.033,1.287c-0.425,0.47-0.83,0.959-1.234,1.445
				c-0.092,0.111-0.15,0.25-0.229,0.389c-0.005-0.059-0.009-0.104-0.012-0.151c-0.014-0.002-0.028-0.006-0.042-0.01
				c-0.085,0.256-0.171,0.512-0.256,0.768c-0.005-0.008-0.022-0.033-0.051-0.074c-0.015,0.065-0.033,0.12-0.04,0.178
				c-0.064,0.512-0.137,1.022,0.018,1.537c-0.022-0.021-0.045-0.041-0.054-0.049c-0.044,0.155-0.092,0.314-0.148,0.508
				c-0.097-0.089-0.158-0.146-0.23-0.213c-0.02,0.048-0.037,0.088-0.055,0.132c-0.056-0.27-0.113-0.541-0.176-0.839
				c-0.063,0.06-0.107,0.102-0.164,0.156c0-0.268,0-0.519,0-0.781c-0.05,0.045-0.1,0.089-0.164,0.145
				c0.059-0.309,0.114-0.597,0.175-0.915c-0.085,0.063-0.14,0.104-0.22,0.163c0.119-0.27,0.226-0.512,0.34-0.773
				c-0.133,0.04-0.242,0.073-0.351,0.107c-0.015-0.021-0.029-0.041-0.044-0.063c0.121-0.105,0.248-0.205,0.36-0.319
				c0.151-0.151,0.212-0.334,0.239-0.555c0.03-0.243,0.114-0.506,0.253-0.704c0.318-0.455,0.662-0.9,1.037-1.31
				c1.025-1.12,2.071-2.218,3.109-3.328c0.034-0.034,0.064-0.073,0.081-0.14c-0.306,0.075-0.612,0.152-0.919,0.226
				c-0.463,0.11-0.924,0.232-1.408,0.203c-0.17-0.011-0.308-0.069-0.429-0.196c-0.401-0.427-0.844-0.493-1.316-0.139
				c-0.346,0.26-0.651,0.578-0.95,0.893c-0.828,0.871-1.487,1.877-2.242,2.807c-0.222,0.273-0.485,0.515-0.726,0.773
				c-0.027,0.029-0.046,0.076-0.046,0.116c-0.004,0.319-0.002,0.636-0.037,0.962C5.5,39.218,5.474,39.178,5.43,39.107
				c0,0.338,0,0.645,0,0.951c-0.013,0.004-0.026,0.008-0.038,0.014c-0.063-0.096-0.127-0.193-0.209-0.314
				c-0.018,0.147-0.04,0.27-0.047,0.393c-0.026,0.443,0.001,0.874,0.109,1.313c0.064,0.265,0.18,0.521,0.193,0.798
				c0.002,0.066-0.013,0.134-0.021,0.211c-0.29-0.068-0.45-0.245-0.562-0.489C4.812,42.095,4.77,42.196,4.72,42.32
				c-0.075-0.375-0.146-0.718-0.222-1.092c-0.036,0.054-0.053,0.08-0.054,0.082c-0.067-0.349-0.139-0.716-0.215-1.114
				c-0.086,0.123-0.147,0.211-0.215,0.306c0.031-0.386,0.06-0.754,0.088-1.12c-0.007-0.006-0.015-0.011-0.023-0.016
				c-0.051,0.071-0.102,0.143-0.152,0.214c-0.019-0.015-0.036-0.026-0.053-0.039c0.052-0.253,0.103-0.506,0.153-0.759
				c0.068-0.343,0.135-0.686,0.197-1.03c0.011-0.058,0.015-0.123,0.003-0.18c-0.07-0.314,0.007-0.606,0.144-0.883
				c0.094-0.19,0.198-0.38,0.327-0.548c0.586-0.771,1.156-1.557,1.781-2.295c0.652-0.77,1.513-1.217,2.489-1.465
				c1.083-0.276,2.177-0.478,3.285-0.604c1.162-0.132,2.327-0.194,3.494-0.209c0.034,0,0.068-0.005,0.098-0.007
				c-0.679-0.129-1.358-0.266-2.039-0.391c-0.722-0.131-1.445-0.267-2.171-0.375c-0.379-0.054-0.769-0.063-1.153-0.077
				c-0.696-0.028-1.386-0.087-2.05-0.316c-0.364-0.128-0.68-0.039-0.934,0.254c-0.125,0.146-0.25,0.293-0.368,0.446
				c-0.222,0.282-0.498,0.492-0.84,0.605c-0.34,0.112-0.563,0.32-0.689,0.666c-0.195,0.531-0.604,0.909-1.027,1.26
				c-0.407,0.337-0.83,0.651-1.245,0.978c-0.045,0.034-0.087,0.069-0.133,0.104c-0.436,0.323-0.688,0.749-0.73,1.295
				c-0.022,0.295-0.047,0.592-0.071,0.879c-0.007-0.005-0.038-0.029-0.069-0.056c-0.014,0.003-0.028,0.007-0.042,0.011
				c0.063,0.295,0.127,0.591,0.196,0.912c-0.05-0.067-0.089-0.124-0.129-0.182c-0.017,0.01-0.033,0.02-0.051,0.028
				c0.107,0.357,0.212,0.717,0.323,1.088c-0.04-0.056-0.076-0.109-0.113-0.163c-0.014,0.008-0.028,0.017-0.043,0.026
				C2.59,38.924,2.717,39.291,2.849,39.681z M18.095,33.326c0-0.018,0-0.035,0-0.053c-0.579-0.239-1.188-0.259-1.796-0.175
				c-0.598,0.082-1.19,0.207-1.785,0.313c0.003,0.024,0.006,0.048,0.009,0.07C15.713,33.43,16.904,33.377,18.095,33.326z"/>
		</g>
		<g>
		</g>
	</g>
</g>
</svg>
