<?xml version="1.0" encoding="utf-8"?>
<!-- Generator: Adobe Illustrator 16.0.0, SVG Export Plug-In . SVG Version: 6.00 Build 0)  -->
<!DOCTYPE svg PUBLIC "-//W3C//DTD SVG 1.1//EN" "http://www.w3.org/Graphics/SVG/1.1/DTD/svg11.dtd">
<svg version="1.1" id="Layer_1" xmlns="http://www.w3.org/2000/svg" xmlns:xlink="http://www.w3.org/1999/xlink" x="0px" y="0px"
	 width="50px" height="50px" viewBox="0 0 50 50" enable-background="new 0 0 50 50" xml:space="preserve">
<g>
	<g id="XMLID_1_">
		<g>
			<path d="M42.063,19.539c1.753-0.4,3.676-0.272,5.497-0.112c1.519,0.136,2.053,1.269,1.313,2.628
				c-1.197,2.192-2.705,4.086-5.521,4.218c-0.188,0.008-0.431,0.064-0.543,0.191c-1.84,2.086-4.309,2.783-6.922,2.975
				c-0.786,0.063-1.641-0.399-2.416-0.731c-1.291-0.554-2.539-1.203-3.814-1.797c-0.276-0.13-0.586-0.274-0.872-0.26
				c-0.206,0.01-0.398,0.276-0.597,0.429c0.135,0.173,0.233,0.434,0.411,0.505c1.427,0.611,2.979,1.009,4.266,1.824
				c0.947,0.6,1.906,1.623,2.236,2.654c0.559,1.754,1.862,2.418,3.244,3.167c0.272,0.148,0.452,0.466,0.677,0.705
				c-0.358,0.06-0.839,0.295-1.056,0.148c-1.585-1.078-3.464-1.873-4.074-3.971c-0.078-0.266-0.349-0.662-0.555-0.677
				c-1.354-0.099-2.175-1.091-3.175-1.782c-0.105-0.072-0.239-0.103-0.487-0.058c1.799,4.054,3.657,8.056,7.175,11.209
				c-1.689-0.14-3.183-1.712-6.694-6.812c-0.295,1.273-0.529,2.583-0.911,3.852c-0.514,1.71-1.475,3.169-2.88,4.295
				c-1.089,0.873-1.304,0.856-2.362-0.029c-2.096-1.755-3.012-4.108-3.412-6.72c-0.058-0.374-0.095-0.751-0.146-1.125
				c-0.014-0.099-0.054-0.195-0.111-0.404c-1.71,2.847-3.517,5.411-6.531,6.869c3.216-3.175,5.198-7.096,7.125-11.048
				c-0.091-0.085-0.182-0.169-0.272-0.254c-0.313,0.215-0.61,0.456-0.942,0.635c-0.737,0.4-1.498,0.751-2.228,1.16
				c-0.308,0.173-0.747,0.404-0.807,0.679c-0.266,1.225-1.12,1.912-2.071,2.556c-0.737,0.499-1.423,1.078-2.191,1.518
				c-0.217,0.126-0.642-0.106-0.97-0.177c0.188-0.237,0.33-0.551,0.574-0.697c0.613-0.367,1.299-0.613,1.902-0.994
				c0.357-0.229,0.67-0.588,0.893-0.955c0.617-1.016,1.102-2.119,1.791-3.08c0.324-0.45,0.97-0.712,1.516-0.951
				c1.293-0.565,2.62-1.058,3.919-1.608c0.148-0.063,0.342-0.357,0.301-0.458c-0.074-0.182-0.307-0.415-0.477-0.417
				c-0.328-0.004-0.679,0.091-0.984,0.227c-1.345,0.601-2.707,1.176-4.008,1.863c-1.51,0.796-3.03,0.831-4.567,0.221
				c-1.238-0.493-2.607-0.888-3.593-1.715c-0.972-0.813-2.032-1.05-3.113-1.483c-1.875-0.753-3.177-2.257-3.967-4.119
				c-0.545-1.285-0.068-2.292,1.316-2.403c1.824-0.148,3.746-0.287,5.496,0.126c3.391,0.798,6.688,1.993,10.031,2.997
				c0.625,0.188,1.287,0.251,1.933,0.374c0.035-0.095,0.07-0.192,0.107-0.287c-0.699-0.516-1.376-1.066-2.102-1.541
				c-0.953-0.621-1.704-1.396-2.015-2.504c-0.409-1.454-1.368-2.414-2.641-3.123c-0.239-0.134-0.514-0.25-0.685-0.448
				c-0.178-0.206-0.248-0.505-0.365-0.763c0.27-0.019,0.61-0.153,0.794-0.037c1.069,0.677,2.106,1.407,3.142,2.137
				c0.125,0.088,0.245,0.272,0.26,0.423c0.177,1.9,1.856,2.611,3.012,3.701c0.4,0.377,1.182,0.349,2.106,0.585
				c-0.714-1.929-1.374-3.715,1.271-4.301c-1.902-1.302-3.658-2.502-5.411-3.703c0.058-0.116,0.116-0.231,0.173-0.349
				c0.443,0.175,0.924,0.289,1.322,0.536c1.335,0.838,2.622,1.755,3.963,2.581c0.986,0.606,1.324,0.483,2.011-0.52
				c0.583,0.972,0.988,1.118,1.968,0.534c1.293-0.77,2.539-1.627,3.82-2.42c0.458-0.282,0.964-0.487,1.446-0.728
				c0.078,0.138,0.156,0.278,0.237,0.417c-1.76,1.182-3.52,2.366-5.354,3.6c0.267,0.2,0.565,0.466,0.901,0.668
				c0.937,0.553,1.112,1.104,0.706,2.164c-0.161,0.423-0.244,0.879-0.365,1.337c1.188,0.167,2.001-0.178,2.725-0.922
				c0.937-0.961,1.834-1.819,2.461-3.142c0.532-1.12,2.187-1.718,3.371-2.508c0.105-0.07,0.396,0.14,0.6,0.221
				c-0.101,0.216-0.144,0.549-0.311,0.631c-1.812,0.899-3.004,2.273-3.677,4.208c-0.225,0.642-0.922,1.159-1.489,1.634
				c-0.722,0.602-1.528,1.102-2.3,1.644c0.024,0.086,0.052,0.171,0.076,0.258c0.514-0.06,1.048-0.045,1.539-0.188
				C35.159,21.523,38.566,20.341,42.063,19.539z"/>
		</g>
		<g>
		</g>
	</g>
</g>
</svg>
