<?xml version="1.0" encoding="utf-8"?>
<!-- Generator: Adobe Illustrator 16.0.0, SVG Export Plug-In . SVG Version: 6.00 Build 0)  -->
<!DOCTYPE svg PUBLIC "-//W3C//DTD SVG 1.1//EN" "http://www.w3.org/Graphics/SVG/1.1/DTD/svg11.dtd">
<svg version="1.1" id="Layer_1" xmlns="http://www.w3.org/2000/svg" xmlns:xlink="http://www.w3.org/1999/xlink" x="0px" y="0px"
	 width="242.857px" height="159.742px" viewBox="0 0 242.857 159.742" enable-background="new 0 0 242.857 159.742"
	 xml:space="preserve">
<g>
	<g id="XMLID_1_">
		<g>
			<path fill="#ABABAB" d="M235.403,16.43c0,0.33,0,0.67,0,1c-2.43,2.91-5.03,5.7-7.26,8.76c-4.03,5.53-3.7,8.24,1.109,12.97
				c-2.97,2.08-6.13,3.94-8.859,6.29c-2.101,1.82-4.33,3.56-2.48,7.49c0.971,2.06,0.42,6.38-3.88,5.91c0.7,2.38,1.38,4.7,2.061,7.01
				c-0.601,0.22-1.19,0.44-1.79,0.66c-1.23-2.32-2.45-4.65-3.62-6.88c-1.12,2.42,1.029,11.53,3.37,13.39
				c2.05,1.64,2.5,2.99-0.29,4.26c-0.28,0.12-0.37,0.65-0.591,1.06c1.57,0.22,2.891,0.4,5.091,0.7c-1.83,1.53-3.2,2.27-3.98,3.41
				c-4.58,6.68-9.58,13.17-13.27,20.319c-2.17,4.2-3.771,9.9-2.74,14.24c1.22,5.17,5.71,9.521,8.46,14.41
				c2.21,3.92,2.26,8.04-0.41,12.61c-4.979-5.181-10.56-8.95-12.439-16.15c-0.69-2.65-3.37-5.08-5.721-6.86
				c-0.89-0.68-3.359,0.881-5.149,1.101c-1,0.13-2.101-0.33-3.13-0.62c-1.57-0.43-3.211-1.53-4.65-1.29
				c-6.24,1.01-12.42,2.41-18.12,3.56c2.14,1.761,4.36,3.591,6.57,5.42c-0.25,0.33-0.5,0.65-0.75,0.98
				c-1.48-0.88-2.95-1.76-3.561-2.13c-1.729,1.36-3.1,2.43-4.79,3.75c-0.8-2.2-1.26-3.47-1.55-4.26
				c-2.439,0.649-4.56,1.8-6.58,1.649c-5.06-0.359-9.76-0.51-12.84,4.57c-0.45,0.75-1.52,1.26-2.42,1.57
				c-6.89,2.38-8.94,6.08-7.23,13.13c0.2,0.85,0.141,1.77,0.301,4.12c-3.66-2.42-6.97-3.721-8.93-6.11c-3.42-4.19-5.89-9.14-9-13.59
				c-2.18-3.13-5.15-3.771-7.95-0.8c-2.17,2.29-4.18,1.869-6,0.06c-1.46-1.46-2.72-3.27-3.56-5.16
				c-2.86-6.439-10.1-11.64-14.5-9.359c-7.37,3.8-13.59,1.25-19.85-2.28c-6.88-3.88-13.08-9.29-21.79-8.97
				c-1.21-7.171-6.51-10.591-11.73-14.141c-0.9-0.609-1.56-1.859-1.92-2.95c-1.47-4.43-3.01-8.859-4.08-13.39
				c-1.36-5.7-2.26-11.51-3.43-17.26c-0.22-1.1-0.74-2.13-1.12-3.2c0-0.67,0-1.33,0-2c0.93-2.36,2.05-4.66,2.75-7.09
				c0.73-2.52,0.5-5.43,1.63-7.7c4.07-8.18,9.32-15.95,6.29-26.42c3.95,2.03,8.64,2.55,5.51,8.47c1.53-1.12,2.83-2.25,3.33-3.66
				c0.6-1.72,0.53-3.68,0.79-5.85c32.24,10.49,64.7,14.36,97.26,11.66c6.62,1.48,12.79,2.85,18.79,4.18
				c-1.649,1.91-3.569,4.15-5.109,5.95c6.46,4.15,9.569-1.53,13.96-4.5c-0.48,3.18,3.439,5.39,6.29,4.63
				c2.609-0.69,5.34-0.88,8.02-1.29c0.07,0.52,0.141,1.03,0.21,1.55c-0.13,0.01-0.25,0.01-0.38,0.02c-0.68,0.04-1.37,0.06-2.04,0.15
				c-4.06,0.56-10.29,5.7-9.01,8.01c1.91,3.45-0.04,6.61,0.88,9.73c0.83,2.79,1.8,5.54,2.71,8.31c0.53-0.03,1.061-0.07,1.58-0.1
				c0.82-1.53,1.96-2.99,2.36-4.62c0.38-1.55,0.56-3.63-0.17-4.88c-3.62-6.19,1.01-9.96,3.8-14.31c6.21,1.8,6.399,2.16,4.84,10.03
				c1.4-0.83,2.55-1.51,3.45-2.05c5.319,4.14-0.29,8.33,0.52,12.29c4.54,2.75,6.931-0.95,9.49-3.13c2.71-2.3,6-4.89,6.92-7.98
				c0.63-2.13,1.17-2.81,2.86-3.34c3.56-1.11,8.76-0.91,5.689-7.28c-0.18-0.37,0.58-1.13,0.721-1.76c1.14-5.04,5.659-5.54,9.43-7.01
				c7.11-2.77,7.75-3.51,7.76-11.19c0.01-4.11,1.3-6.92,4.93-7.35C229.693,10.34,232.554,13.39,235.403,16.43z"/>
		</g>
		<g>
		</g>
	</g>
</g>
</svg>
