<?xml version="1.0" encoding="utf-8"?>
<!-- Generator: Adobe Illustrator 16.0.0, SVG Export Plug-In . SVG Version: 6.00 Build 0)  -->
<!DOCTYPE svg PUBLIC "-//W3C//DTD SVG 1.1//EN" "http://www.w3.org/Graphics/SVG/1.1/DTD/svg11.dtd">
<svg version="1.1" id="Layer_1" xmlns="http://www.w3.org/2000/svg" xmlns:xlink="http://www.w3.org/1999/xlink" x="0px" y="0px"
	 width="50px" height="50px" viewBox="0 0 50 50" enable-background="new 0 0 50 50" xml:space="preserve">
<g>
	<g id="XMLID_1_">
		<g>
			<path d="M48.775,26.208c-0.264,1.206-0.443,2.435-0.807,3.609c-0.527,1.696-1.842,2.251-3.485,1.544
				c-0.624-0.269-1.184-0.674-1.795-0.985c-1.396-0.717-2.778-1.483-4.225-2.094c-0.916-0.385-1.871-0.202-2.767,0.406
				c0.648,0.146,1.226,0.231,1.771,0.413c1.452,0.483,1.916,1.611,1.271,2.995c-0.684,1.474-1.875,2.299-3.404,2.688
				c-2.086,0.53-4.082,0.189-6.002-0.677c-1.422-0.646-2.83-1.079-4.34-0.293c-0.087,0.044-0.207,0.025-0.31,0.043
				c-1.212,0.202-2.424,0.408-3.647,0.613c0.68,1.408,0.525,3.671-0.9,4.752c-0.369,0-0.739,0-1.107,0
				c-2.057-0.916-3.415-2.581-4.713-4.324c-0.203-0.272-0.581-0.528-0.908-0.574c-3.163-0.441-6.088-1.382-8.522-3.586
				c-0.585-0.53-1.415-0.778-2.095-1.213c-0.475-0.305-0.884-0.704-1.324-1.063c0-0.58,0-1.161,0-1.74
				c0.283-0.396,0.554-0.804,0.851-1.187c1.059-1.364,2.028-2.814,3.217-4.055c1.532-1.6,3.622-2.328,5.71-2.846
				c1.706-0.426,2.725-1.277,2.905-3.047c0.003-0.043,0.062-0.079,0.095-0.119c0.038,0.066,0.078,0.133,0.116,0.199
				c0.583-0.318,1.166-0.638,1.816-0.995c0.838,0.403,1.226,0.315,1.587-0.45c0.052,0,0.106,0,0.158,0
				c0.497,0.647,1.016,0.385,1.699,0.268c0.691-0.119,1.505,0.356,2.239,0.638c0.708,0.272,1.37,0.663,2.078,0.943
				c0.656,0.261,1.346,0.441,2.016,0.668c0.061,0.019,0.098,0.106,0.146,0.161c0.573,0.687,1.174,0.764,1.984,0.385
				c0.972-0.454,1.949-0.95,2.979-1.217c2.129-0.554,4.165-0.255,5.786,1.353c1.682,1.669,1.006,4.163-1.249,4.862
				c-0.076,0.024-0.15,0.057-0.452,0.169c0.572,0.068,0.935,0.208,1.235,0.128c1.13-0.297,2.306-0.536,3.344-1.042
				c1.243-0.606,2.35-1.494,3.545-2.204c2.158-1.283,4.27-0.541,5.183,1.797c0.188,0.481,0.321,0.984,0.479,1.478
				c0,1.002,0,2.005,0,3.006C48.882,25.814,48.819,26.007,48.775,26.208z"/>
		</g>
		<g>
		</g>
	</g>
</g>
</svg>
