<?xml version="1.0" encoding="utf-8"?>
<!-- Generator: Adobe Illustrator 16.0.0, SVG Export Plug-In . SVG Version: 6.00 Build 0)  -->
<!DOCTYPE svg PUBLIC "-//W3C//DTD SVG 1.1//EN" "http://www.w3.org/Graphics/SVG/1.1/DTD/svg11.dtd">
<svg version="1.1" id="Layer_1" xmlns="http://www.w3.org/2000/svg" xmlns:xlink="http://www.w3.org/1999/xlink" x="0px" y="0px"
	 width="50px" height="50px" viewBox="0 0 50 50" enable-background="new 0 0 50 50" xml:space="preserve">
<g>
	<g id="XMLID_4_">
		<g>
			<path fill="#FFFFFF" d="M24.333,44.727c0.077,0.188,0.16,0.344,0.206,0.506c0.162,0.619,0.304,1.242,0.469,1.857
				c0.107,0.402,0.33,0.795,0.333,1.193c0.005,0.514,0.207,0.813,0.631,1.02c-0.844,0-1.687,0-2.53,0V49.09
				c0.236,0,0.525-0.072,0.659-0.219c0.281-0.311,0.113-0.654-0.156-0.941c-0.079-0.086-0.129-0.229-0.132-0.344
				c-0.014-0.594-0.045-1.193,0.008-1.783C23.856,45.428,23.819,44.961,24.333,44.727z"/>
			<path d="M42.175,14.461c0.434-0.117,1.251,0.206,1.28,0.546c0.029,0.36-0.025,0.993-0.205,1.06
				c-0.709,0.256-0.831,0.896-1.112,1.416c-0.275,0.51-0.12,0.691,0.466,0.699c0.734,0.009,1.33-0.357,1.58-1.008
				c0.166-0.434,0.464-0.596,0.904-0.545c0.539,0.063,1.029,0.477,1.102,0.927c0.118,0.764-0.254,1.239-1.021,1.315
				c-0.559,0.054-1.118,0.113-1.677,0.179c-0.439,0.051-0.711,0.476-0.576,0.883c0.161,0.484,0.947,0.778,1.396,0.519
				c0.331-0.19,0.655-0.284,1.047-0.145c0.772,0.271,0.97,0.646,0.767,1.369c-0.165,0.59-0.969,0.706-1.464,0.471
				c-0.565-0.264-1.083-0.627-1.623-0.944c-0.207-0.123-0.415-0.25-0.633-0.354c-0.854-0.415-1.207-0.295-1.873,0.392
				c-0.818,0.844-1.658,1.676-2.568,2.417c-1.317,1.069-1.438,0.556-2.279-0.327c-0.318-0.334-0.59-0.717-0.853-1.101
				c-0.258-0.38-0.478-0.788-0.801-1.325c-0.256,0.559-0.48,1.034-0.692,1.517c-0.873,1.959-1.625,3.984-3.104,5.609
				c-0.085,0.094-0.135,0.215-0.222,0.361c0.618,0.408,1.314,0.355,1.968,0.391c1.638,0.098,3.27,0.189,4.79,0.885
				c0.57,0.262,1.205,0.563,1.274,1.25c0.044,0.449-0.098,1-0.348,1.379c-0.722,1.09-1.841,1.762-2.909,2.461
				c-1.086,0.715-2.191,1.406-3.311,2.064c-2.004,1.186-3.99,2.41-6.249,3.066c-0.268,0.08-0.562,0.064-0.839,0.113
				c-0.115,0.018-0.283,0.061-0.316,0.135c-0.036,0.082,0.03,0.258,0.109,0.33c0.431,0.389,0.854,0.785,1.32,1.125
				c1.257,0.92,2.531,1.813,3.806,2.707c0.153,0.107,0.351,0.15,0.518,0.242c0.571,0.309,0.752,1.08,0.332,1.4
				c-0.396,0.303-0.999,0.018-1.171-0.557c-0.204-0.682-1.227-1.189-1.834-0.879c0.22,0.385,0.437,0.771,0.66,1.152
				c0.26,0.441,0.502,0.896,0.804,1.311c0.149,0.201,0.419,0.311,0.623,0.473c0.204,0.166,0.483,0.313,0.571,0.529
				c0.127,0.326,0.119,0.725-0.259,0.938c-0.313,0.18-0.759-0.115-0.998-0.475c-0.771-1.168-1.584-2.307-2.385-3.455
				c-0.042-0.063-0.117-0.102-0.321-0.275c-0.006,0.389-0.05,0.654-0.007,0.904c0.103,0.596,0.229,1.191,0.385,1.775
				c0.076,0.287,0.199,0.574,0.358,0.828c0.245,0.385,0.269,0.734-0.028,1.094c-0.195,0-0.389,0-0.583,0h-0.001
				c-0.424-0.207-0.626-0.506-0.631-1.02c-0.004-0.398-0.227-0.791-0.333-1.193c-0.165-0.615-0.307-1.238-0.469-1.857
				c-0.046-0.162-0.129-0.318-0.206-0.506c-0.514,0.234-0.477,0.701-0.511,1.076c-0.053,0.59-0.022,1.189-0.008,1.783
				c0.002,0.115,0.053,0.258,0.132,0.344c0.269,0.287,0.437,0.631,0.156,0.941c-0.134,0.146-0.423,0.219-0.659,0.219
				c-0.034,0-0.066-0.001-0.097-0.004c-0.384-0.039-0.606-0.344-0.671-0.723c-0.432-2.568-0.855-5.135-1.288-7.703
				c-0.042-0.252-0.119-0.498-0.202-0.738c-0.145-0.424-0.017-0.764,0.332-1c1.357-0.914,2.715-1.828,4.09-2.713
				c1.267-0.816,2.556-1.604,3.84-2.396c0.684-0.42,1.38-0.816,2.069-1.227c0.048-0.027,0.087-0.076,0.197-0.176
				c-0.215-0.023-0.349-0.045-0.482-0.045c-1.183-0.004-2.364,0.016-3.547-0.006c-1.573-0.031-3.131-0.17-4.631-0.723
				c-0.961-0.354-1.58-1.08-2.146-1.861c-1.216-1.676-2.097-3.525-2.813-5.459c-0.146-0.39-0.294-0.777-0.466-1.156
				c-0.043-0.092-0.178-0.146-0.269-0.217c-0.077,0.103-0.209,0.201-0.218,0.308c-0.05,0.608-0.055,1.222-0.105,1.83
				c-0.162,2.005-0.606,3.948-1.294,5.837c-0.165,0.445-0.305,0.902-0.513,1.326c-0.078,0.156-0.316,0.332-0.482,0.336
				c-2.035,0.053-4.044-0.164-6.038-0.553c-0.676-0.131-1.364-0.191-2.042-0.303c-0.253-0.043-0.402,0-0.555,0.236
				c-0.249,0.389-0.546,0.391-0.931,0.076c-0.36-0.293-0.519-0.865-0.231-1.072c0.172-0.123,0.528-0.129,0.741-0.039
				c0.944,0.383,1.908,0.152,2.865,0.164c0.029,0,0.062-0.066,0.111-0.123c-0.524-0.711-1.333-0.982-2.061-1.365
				c-0.324-0.17-0.692-0.27-1.051-0.352c-0.222-0.051-0.48-0.061-0.697,0.002c-0.401,0.115-0.667-0.033-0.85-0.359
				c-0.192-0.342-0.151-0.689,0.141-0.963c0.247-0.236,0.535-0.172,0.719,0.068c0.456,0.58,1.071,0.639,1.734,0.623
				c0.677-0.014,1.355-0.002,2.18-0.002c-0.219-0.391-0.333-0.732-0.558-0.969c-0.53-0.564-1.101-1.088-1.685-1.596
				c-0.124-0.108-0.376-0.114-0.562-0.096c-0.464,0.045-1.125-0.349-1.089-0.727c0.02-0.21,0.138-0.508,0.3-0.589
				c0.349-0.17,0.817-0.135,1.007,0.208c0.341,0.623,0.958,0.831,1.485,1.167c0.797,0.51,1.628,0.967,2.446,1.445
				c0.238,0.139,0.54-0.021,0.497-0.293c-0.118-0.734-0.51-1.341-0.976-1.898c-0.069-0.083-0.265-0.074-0.403-0.083
				c-0.425-0.032-0.848-0.379-0.851-0.712c-0.005-0.385,0.264-0.658,0.671-0.675c0.513-0.025,0.796,0.243,0.858,0.756
				c0.017,0.146,0.12,0.321,0.238,0.407c1.263,0.922,2.487,1.883,3.424,3.161c0.066,0.092,0.316,0.182,0.355,0.145
				c0.174-0.168,0.402-0.373,0.427-0.586c0.095-0.797,0.127-1.601,0.162-2.401c0.041-0.92,0.055-1.841,0.087-2.763
				c0.059-1.708,0.07-3.422,0.2-5.126c0.085-1.138,0.088-2.311,0.653-3.369c0.232-0.434,0.528-0.658,1.044-0.707
				c0.861-0.081,1.39,0.268,1.87,0.972c1.056,1.554,1.957,3.184,2.76,4.876c0.17,0.362,0.362,0.713,0.563,1.058
				c0.083,0.139,0.218,0.25,0.33,0.375c0.128-0.13,0.306-0.238,0.375-0.396c0.298-0.7,0.585-1.41,0.842-2.13
				c0.271-0.765,0.5-1.549,0.752-2.321c0.089-0.27-0.047-0.328-0.281-0.373c-0.785-0.15-1.584-0.274-2.347-0.507
				c-0.624-0.193-1.215-0.505-1.791-0.817c-0.155-0.084-0.262-0.353-0.292-0.552c-0.271-1.83,0.051-3.607,0.489-5.375
				c0.165-0.651,0.342-1.305,0.43-1.968c0.029-0.231-0.124-0.563-0.303-0.73c-0.284-0.271-0.654-0.461-1.002-0.655
				c-0.101-0.056-0.262-0.032-0.391-0.01c-0.619,0.106-1.396-0.526-1.345-1.125c0.038-0.425,0.156-0.812,0.665-0.917
				c0.402-0.083,1.037,0.207,1.267,0.498c0.289,0.368,0.622,0.713,0.991,1.002c0.137,0.108,0.457,0.093,0.629,0.009
				c0.104-0.051,0.164-0.374,0.111-0.531c-0.153-0.444-0.312-0.91-0.583-1.285c-0.424-0.592-0.393-1.264,0.181-1.717h0.001
				c0.323,0,0.648,0,0.971,0c0.205,0.254,0.461,0.487,0.597,0.772C22.088,1.654,22.09,2,21.972,2.142
				c-0.475,0.56-0.275,1.091-0.015,1.747c0.397-0.225,0.779-0.416,1.125-0.655c0.088-0.061,0.098-0.278,0.095-0.421
				c-0.025-0.519,0.219-0.994,0.584-1.098c0.452-0.13,1.132,0.123,1.349,0.499c0.269,0.466,0.237,1.169-0.1,1.431
				c-0.14,0.106-0.354,0.125-0.539,0.156c-0.157,0.028-0.388-0.045-0.472,0.039c-0.378,0.374-0.721,0.786-1.058,1.204
				c-0.031,0.039,0.075,0.249,0.164,0.313c0.498,0.357,1.073,0.378,1.664,0.375c0.688-0.001,1.138,0.605,0.937,1.229
				c-0.189,0.593-1.096,0.792-1.507,0.31c-0.593-0.69-1.411-0.681-2.198-0.757c-0.356-0.036-0.301,0.265-0.295,0.482
				c0.026,1.28,0.072,2.56,0.082,3.84c0.005,0.463-0.045,0.93-0.107,1.391c-0.061,0.45,0.032,0.576,0.458,0.576
				c0.771-0.003,1.568-0.11,2.31,0.047c0.918,0.192,1.27-0.304,1.627-0.944c0.218-0.392,0.465-0.77,0.723-1.19
				c-0.066-0.184-0.203-0.416-0.23-0.658c-0.138-1.243,0.566-1.517,1.559-1.36c0.28,0.045,0.407-0.031,0.576-0.16
				c0.854-0.665,1.778-1.09,2.899-1.123c1.071-0.031,2.393,0.963,2.821,1.935c0.339,0.772,0.524,1.568,0.455,2.42
				c-0.007,0.102,0.134,0.234,0.232,0.325c0.222,0.202,0.504,0.354,0.683,0.587c0.388,0.507,0.172,1.221-0.394,1.511
				c-0.118,0.06-0.262,0.195-0.277,0.31c-0.117,0.904-0.22,1.814-0.293,2.724c-0.014,0.169,0.096,0.366,0.188,0.526
				c0.349,0.593,0.749,1.158,1.067,1.767c0.247,0.478,0.398,1.004,0.62,1.581c0.063-0.024,0.215-0.046,0.329-0.125
				c0.819-0.573,1.658-1.094,2.676-1.26c0.35-0.056,0.48-0.316,0.319-0.64c-0.306-0.619-0.628-1.228-0.973-1.825
				c-0.067-0.117-0.262-0.168-0.406-0.229c-0.777-0.321-0.813-0.895-0.606-1.543c0.057-0.179,0.395-0.405,0.57-0.384
				c0.414,0.055,0.844,0.188,1.2,0.4c0.359,0.214,0.463,0.592,0.232,1.007c-0.144,0.26,0.051,1.168,0.268,1.35
				c0.309,0.259,0.761,0.108,0.843-0.324c0.145-0.767,0.26-1.541,0.363-2.313C41.578,14.808,41.803,14.557,42.175,14.461z"/>
		</g>
		<g>
		</g>
	</g>
</g>
</svg>
