<?xml version="1.0" encoding="utf-8"?>
<!-- Generator: Adobe Illustrator 16.0.0, SVG Export Plug-In . SVG Version: 6.00 Build 0)  -->
<!DOCTYPE svg PUBLIC "-//W3C//DTD SVG 1.1//EN" "http://www.w3.org/Graphics/SVG/1.1/DTD/svg11.dtd">
<svg version="1.1" id="Layer_1" xmlns="http://www.w3.org/2000/svg" xmlns:xlink="http://www.w3.org/1999/xlink" x="0px" y="0px"
	 width="224.78px" height="224.89px" viewBox="0 0 224.78 224.89" enable-background="new 0 0 224.78 224.89" xml:space="preserve">
<g>
	<g id="XMLID_1_">
		<g>
			<path fill="#F6B561" d="M36.26,216.07c-4.41,4.38-9.76,6.58-14.98,6.58c-4.74,0-9.39-1.82-13.13-5.471
				c-3.96-3.85-5.95-8.689-5.95-13.63c0-5.16,2.18-10.43,6.55-14.819c23.97-24.091,48.03-48.091,72.08-72.11
				c1.29-1.29,2.76-2.41,4.72-4.12c-4.18-3.95-7.99-7.39-11.62-11.01C52.11,79.72,30.3,57.95,8.56,36.09
				c-4.28-4.3-6.37-9.5-6.37-14.58c0-5.79,2.72-11.44,8.05-15.45C13.59,3.54,17.4,2.3,21.28,2.3c5.25,0,10.62,2.28,15.13,6.77
				c24.06,24.01,48.07,48.06,72.09,72.1c1.18,1.18,2.26,2.45,3.6,3.92c1.54-1.45,2.85-2.62,4.09-3.86
				C140.35,57.08,164.46,32.9,188.66,8.8c4.391-4.37,9.601-6.53,14.7-6.53c5.55,0,10.96,2.56,15.021,7.58
				c2.79,3.45,4.17,7.48,4.17,11.58c0,5.22-2.24,10.56-6.65,14.99c-22.109,22.18-44.27,44.32-66.439,66.45
				c-3.17,3.15-6.54,6.1-10.021,9.34c25.54,25.5,50.59,50.39,75.431,75.49c2.93,2.97,5.6,6.81,6.81,10.729
				c0.56,1.82,0.83,3.63,0.83,5.4c0,6.72-3.811,12.85-9.9,16.26c-3.1,1.74-6.37,2.601-9.609,2.601c-4.9,0-9.73-1.98-13.771-5.931
				c-9.88-9.68-19.58-19.529-29.35-29.31c-15.771-15.8-31.521-31.61-47.45-47.57c-12.21,12.23-24.22,24.25-36.22,36.26
				C62.9,189.46,49.62,202.81,36.26,216.07z"/>
		</g>
		<g>
		</g>
	</g>
</g>
</svg>
