<?xml version="1.0" encoding="utf-8"?>
<!-- Generator: Adobe Illustrator 16.0.0, SVG Export Plug-In . SVG Version: 6.00 Build 0)  -->
<!DOCTYPE svg PUBLIC "-//W3C//DTD SVG 1.1//EN" "http://www.w3.org/Graphics/SVG/1.1/DTD/svg11.dtd">
<svg version="1.1" id="Layer_1" xmlns="http://www.w3.org/2000/svg" xmlns:xlink="http://www.w3.org/1999/xlink" x="0px" y="0px"
	 width="50px" height="50px" viewBox="0 0 50 50" enable-background="new 0 0 50 50" xml:space="preserve">
<g>
	<g id="XMLID_2_">
		<g>
			<path d="M19.798,19.081c-0.033,0.3,0.001,0.601,0.06,0.869c0.087,0.398,0.317,0.771,0.658,1.037
				c0.518,0.405,1.032,0.82,1.573,1.193c0.333,0.227,0.733,0.292,1.134,0.195c0.429-0.104,0.852-0.237,1.279-0.351
				c0.416-0.109,0.829-0.217,1.248-0.313c0.439-0.098,0.892-0.163,1.327-0.279c0.432-0.115,0.855-0.185,1.302-0.094
				c0.655,0.134,1.312,0.275,1.973,0.364c0.748,0.098,1.469,0.298,2.156,0.59c0.653,0.276,1.294,0.598,1.9,0.966
				c1.099,0.667,2.095,1.472,3.025,2.362c0.795,0.759,1.532,1.565,2.076,2.527c0.47,0.832,1.031,1.632,1.362,2.517
				c0.478,1.265,0.878,2.566,0.879,3.956c0.001,1.096,0.088,2.195,0.169,3.293c0.02,0.278,0.123,0.564,0.255,0.814
				c0.056,0.101,0.298,0.17,0.435,0.146c0.341-0.064,0.676-0.178,1.005-0.297c0.179-0.064,0.285-0.066,0.406,0.112
				c0.195,0.278,0.386,0.543,0.373,0.91c-0.003,0.066,0.11,0.171,0.19,0.197c0.115,0.037,0.247,0.025,0.373,0.025
				c0.436,0.004,0.487,0.064,0.609,0.494c0.133,0.456-0.01,0.884-0.088,1.318c-0.034,0.197-0.089,0.396-0.111,0.593
				c-0.013,0.113-0.021,0.269,0.042,0.346c0.293,0.348,0.296,0.795,0.443,1.192c0.022,0.063,0.016,0.153-0.012,0.215
				c-0.116,0.26-0.246,0.514-0.374,0.769c-0.162,0.323-0.331,0.642-0.487,0.971c-0.243,0.511-0.689,0.817-1.153,1.084
				c-0.559,0.32-1.13,0.666-1.742,0.85c-0.67,0.197-1.392,0.254-2.095,0.306c-0.408,0.026-0.826-0.068-1.24-0.126
				c-0.308-0.042-0.596,0.013-0.9,0.063c-0.985,0.168-1.857,0.667-2.811,0.914c-0.338,0.089-0.696,0.114-1.048,0.146
				c-1.173,0.104-2.349,0.209-3.523,0.293c-1.03,0.072-2.063,0.111-3.097,0.171c-0.501,0.027-1.002,0.099-1.504,0.099
				c-0.436,0-0.876-0.034-1.301-0.126c-0.605-0.129-1.061-0.94-0.97-1.541c0.096-0.629,0.506-1.084,0.809-1.598
				c0.227-0.38,0.175-0.514-0.253-0.607c-0.464-0.105-0.949-0.18-1.376-0.367c-0.475-0.213-0.904-0.531-1.344-0.815
				c-0.159-0.106-0.249-0.178-0.47-0.042c-0.38,0.232-0.688,0.521-0.978,0.849c-0.323,0.366-0.659,0.72-1.002,1.064
				c-0.529,0.531-1.201,0.883-1.758,1.376c-0.746,0.659-1.7,0.727-2.599,0.961c-0.07,0.019-0.146,0.022-0.213,0.049
				c-0.328,0.137-0.655,0.035-0.984,0.008c-0.262-0.02-0.522-0.038-0.785-0.055c-0.294-0.018-0.597,0.003-0.88-0.059
				c-0.328-0.069-0.643-0.211-0.963-0.319c-0.26-0.091-0.531-0.16-0.779-0.276c-0.095-0.042-0.184-0.18-0.203-0.286
				c-0.063-0.348-0.121-0.701-0.129-1.053c-0.019-0.804,0.003-1.612,0.566-2.267c0.134-0.157,0.356-0.244,0.542-0.355
				c0.708-0.422,1.429-0.819,2.12-1.267c0.251-0.163,0.437-0.428,0.631-0.664c0.036-0.04,0.004-0.191-0.046-0.242
				c-0.48-0.489-0.975-0.962-1.455-1.445c-0.455-0.46-0.973-0.882-1.326-1.411c-0.216-0.324-0.22-0.818-0.247-1.243
				c-0.049-0.84-0.064-1.682-0.321-2.494c-0.22-0.694-0.411-1.398-0.678-2.069c-0.184-0.457-0.072-0.851,0.064-1.268
				c0.282-0.858,0.569-1.719,0.84-2.581c0.047-0.15,0.051-0.325,0.032-0.483c-0.009-0.079-0.099-0.188-0.173-0.212
				c-0.386-0.119-0.775-0.223-1.168-0.313c-0.444-0.102-0.896-0.179-1.341-0.271c-0.257-0.055-0.542-0.07-0.757-0.195
				c-0.572-0.339-1.149-0.689-1.527-1.262c-0.445-0.679-0.944-1.334-1.284-2.063c-0.314-0.669-0.313-1.403,0.116-2.089
				c0.384-0.617,0.75-1.25,1.069-1.902c0.227-0.461,0.381-0.96,0.541-1.453c0.252-0.779,0.696-1.454,1.156-2.11
				c0.548-0.78,1.121-1.561,1.931-2.097c0.324-0.212,0.728-0.329,1.111-0.438c0.594-0.165,1.204-0.292,1.808-0.427
				c0.162-0.035,0.214-0.113,0.209-0.275c-0.009-0.328,0.01-0.659-0.005-0.985c-0.059-1.239,0.208-2.439,0.438-3.643
				c0.161-0.834,0.325-1.674,0.56-2.491c0.28-0.971,0.591-1.938,0.978-2.873c0.351-0.845,0.808-1.646,1.255-2.447
				c0.144-0.259,0.387-0.477,0.626-0.662c0.109-0.086,0.332-0.097,0.478-0.055c0.533,0.151,0.927,0.512,1.187,0.98
				c0.215,0.387,0.344,0.82,0.516,1.231c0.028,0.064,0.081,0.125,0.143,0.216c0,0-0.035,0.049-0.083,0.122
				c0.051,0,0.084,0.009,0.098-0.004c0.492-0.414,0.975-0.836,1.473-1.244c0.409-0.336,0.802-0.712,1.264-0.961
				c0.438-0.238,0.974-0.297,1.462-0.149c0.202,0.062,0.388,0.313,0.496,0.524c0.363,0.697,0.638,1.425,0.606,2.238
				c-0.026,0.649-0.06,1.301-0.017,1.947c0.033,0.495-0.157,0.938-0.203,1.413c-0.061,0.671-0.163,1.339-0.282,2.002
				c-0.042,0.222-0.194,0.425-0.289,0.64c-0.101,0.234-0.174,0.485-0.293,0.709c-0.222,0.432-0.449,0.861-0.71,1.273
				c-0.385,0.611-0.82,1.192-1.194,1.806c-0.174,0.287-0.256,0.625-0.382,0.937c-0.1,0.242-0.246,0.474-0.299,0.723
				c-0.07,0.341-0.09,0.693-0.1,1.04c-0.016,0.56-0.008,1.121-0.008,1.682C19.812,18.198,19.842,18.644,19.798,19.081z"/>
		</g>
		<g>
		</g>
	</g>
</g>
</svg>
