<?xml version="1.0" encoding="utf-8"?>
<!-- Generator: Adobe Illustrator 16.0.0, SVG Export Plug-In . SVG Version: 6.00 Build 0)  -->
<!DOCTYPE svg PUBLIC "-//W3C//DTD SVG 1.1//EN" "http://www.w3.org/Graphics/SVG/1.1/DTD/svg11.dtd">
<svg version="1.1" id="Layer_1" xmlns="http://www.w3.org/2000/svg" xmlns:xlink="http://www.w3.org/1999/xlink" x="0px" y="0px"
	 width="50px" height="50px" viewBox="0 0 50 50" enable-background="new 0 0 50 50" xml:space="preserve">
<g>
	<g id="XMLID_1_">
		<g>
			<path d="M47.42,15.81c0.14,0.85-0.18,1.58-0.81,1.98c-1.45,0.93-2.761,1.95-3.73,3.43c-0.55,0.83-1.57,0.78-2.46,0.56
				c-1.35-0.33-2.53-0.08-3.56,0.82c-0.95,0.84-1.851,1.73-2.83,2.66c0.939,0.82,1.85,1.46,2.989,1.69
				c0.61,0.12,1.11-0.2,1.29-0.771c0.19-0.58,0.221-1.22,0.33-1.84c0.091-0.49,0.03-1.14,0.771-1.19c0.72-0.04,0.97,0.46,1.09,1.09
				c0.25,1.21,0.26,1.19,1.48,1.3c0.43,0.04,0.859,0.16,1.359,0.26c-0.42,0.92-1.17,0.94-1.85,1.101
				c-0.891,0.199-1.78,0.34-2.66,0.6c-1.11,0.31-1.28,1.21-0.42,2c0.21,0.2,0.52,0.37,0.59,0.61c0.09,0.35,0.01,0.75,0,1.14
				c-0.35-0.02-0.76,0.07-1.05-0.08c-0.32-0.16-0.55-0.52-0.76-0.84c-0.221-0.32-0.391-0.66-0.54-1.021
				c-0.5-1.26-1.29-1.84-2.771-1.72c-2.93,0.26-5.67,1-8.13,2.63c-1.87,1.24-3.5,2.73-4.1,5.03c-0.48,1.85-0.09,3.67,0.25,5.49
				c0.29,1.609,1.02,1.5,2.16,1.189c0.37-0.1,0.72-0.279,1.06-0.46c1.22-0.64,1.45-1.21,0.83-2.439c-0.7-1.42-1.05-2.891-1.03-4.45
				c0-0.38,0.06-0.78,0.17-1.14c0.14-0.421,0.48-0.761,0.93-0.57c0.23,0.11,0.421,0.53,0.44,0.84c0.07,0.67,0.021,1.35,0.021,2.03
				c0.109,0.02,0.22,0.029,0.329,0.05c0.181-0.5,0.381-0.99,0.521-1.5c0.12-0.41,0.29-0.8,0.75-0.69c0.51,0.12,0.51,0.62,0.38,1.011
				c-0.17,0.5-0.46,0.949-0.67,1.439c-0.23,0.561-0.51,1.24,0.11,1.641c0.569,0.359,1.21,0.01,1.56-0.521
				c0.6-0.9,1.12-1.85,1.65-2.79c0.47-0.83,0.89-1.7,1.359-2.53c0.13-0.229,0.32-0.47,0.54-0.56c0.21-0.08,0.5,0.02,0.76,0.04
				c-0.079,0.22-0.1,0.479-0.239,0.64c-0.25,0.29-0.561,0.521-0.75,0.9c0.439-0.15,0.88-0.351,1.33-0.4
				c0.25-0.029,0.52,0.2,0.79,0.311c-0.16,0.21-0.261,0.5-0.471,0.609c-1.319,0.721-2.39,1.69-3.22,3.141
				c1.09-0.33,2.06-0.561,2.83-1.261c0.32-0.289,0.65-0.63,1.04-0.75c0.25-0.079,0.62,0.16,0.93,0.261
				c-0.14,0.27-0.229,0.59-0.43,0.8c-0.29,0.29-0.67,0.49-1.16,0.84c0.79,0.08,1.29,0.04,1.68-0.46c0.23-0.3,0.551-0.51,0.92-0.17
				c0.351,0.31,0.341,0.67,0.091,1.03c-0.49,0.699-1.24,0.91-2.021,0.899c-0.89,0-1.79-0.08-2.67-0.18
				c-1.52-0.17-2.36,0.17-2.97,1.58c-0.62,1.42-1.5,2.52-2.84,3.33c-0.5,0.29-0.82,0.87-1.23,1.319c0.05,0.08,0.1,0.16,0.14,0.24
				c0.45,0.03,0.891,0.13,1.33,0.11c1.42-0.07,2.841-0.13,4.25-0.271c1.07-0.109,1.53-0.689,1.46-1.76
				c-0.04-0.71-0.26-1.41-0.31-2.13c-0.03-0.38,0.06-0.83,0.24-1.16c0.109-0.2,0.51-0.25,0.77-0.37c0.101,0.25,0.29,0.5,0.3,0.75
				c0.011,0.91-0.04,1.82-0.069,2.73c0,0.09,0.029,0.18,0.029,0.21c0.551-0.4,1.07-0.83,1.65-1.19c0.41-0.239,0.89-0.27,1.22,0.181
				c0.341,0.46,0.101,0.85-0.25,1.13c-1.12,0.899-2.27,1.77-3.42,2.64c-0.149,0.12-0.3,0.22-0.45,0.33
				c0.721,0.98,1.61,1.17,2.57,0.58c0.311-0.19,0.601-0.41,0.91-0.59c0.35-0.2,0.71-0.23,0.93,0.18c0.21,0.4,0.08,0.75-0.35,0.94
				c-1.021,0.47-2.07,0.58-3.16,0.29c-2.76-0.71-5.52-0.73-8.26,0.08c-1.01,0.29-1.35,0.699-1.46,1.72
				c-0.11,1.02-0.36,1.27-1.21,1.2c-1.22-0.12-1.8-0.65-1.7-1.591c0.02-0.189,0.08-0.38,0.12-0.56c0.2-1-0.03-1.86-0.91-2.41
				c-1.98-1.22-4.07-1.479-6.25-0.5c-1.02,0.46-2.02,0.98-3.08,1.351c-0.74,0.27-1.45-0.131-1.81-0.83
				c-0.09-0.181-0.15-0.521-0.05-0.63c0.14-0.15,0.45-0.19,0.67-0.181c0.48,0.021,0.95,0.17,1.43,0.15
				c0.9-0.021,1.23-0.62,0.79-1.42c-0.19-0.33-0.45-0.62-0.68-0.931c-0.74-1.02-1.22-2.13-1.06-3.42
				c0.02-0.22,0.24-0.409,0.37-0.609c0.19,0.16,0.49,0.29,0.57,0.5c0.18,0.46,0.25,0.97,0.37,1.46c0.42,1.63,1.9,2.859,3.36,2.76
				c0.13-0.73-0.27-1.28-0.64-1.83c-0.4-0.6-0.84-1.18-1.21-1.8c-0.23-0.39-0.33-0.851,0.24-1.07c0.53-0.2,0.74,0.141,0.94,0.601
				c0.51,1.199,1.02,2.43,1.67,3.56c0.45,0.8,1.17,1.03,1.6,0.73c0.7-0.5,0.34-1.11,0.13-1.69c-0.67-1.84-1.82-3.28-3.58-4.17
				c-1.32-0.67-2.64-1.38-4.04-1.85c-1.52-0.521-2.5-1.37-2.69-3.011c-0.08-0.68-0.22-1.37-0.25-2.06c-0.03-0.63,0.48-1.23,1.01-1.2
				c0.63,0.021,0.85,0.5,0.88,1.04c0.03,0.66-0.07,1.34-0.01,2.01c0.03,0.391,0.26,0.771,0.41,1.15c0.06-0.03,0.13-0.05,0.2-0.08
				c0.03-0.45-0.04-0.94,0.12-1.33c0.21-0.5,0.57-0.96,0.94-1.36c0.11-0.12,0.56-0.12,0.69,0c0.17,0.16,0.3,0.53,0.24,0.75
				c-0.16,0.54-0.61,1.051-0.24,1.63c0.47,0.75,1.02,1.471,1.59,2.28c0.49-0.59,0.54-1.03,0.43-1.56
				c-0.25-1.19-0.53-2.391-0.59-3.601c-0.03-0.67,0.31-1.38,0.57-2.029c0.11-0.29,0.36-0.54,0.64-0.54c0.11,0,0.22,0.04,0.33,0.12
				c0.04,0.029,0.07,0.069,0.1,0.119c0.11,0.221,0.11,0.61,0.09,0.881c-0.09,1-0.35,1.979-0.35,2.97c0,0.14,0,0.28,0.02,0.42
				c0.02,0.86,0.1,1.729,0.18,2.56c0.03,0.32,0.06,0.641,0.08,0.95c0-0.01,0.01-0.01,0.01-0.02c0.05-0.101,0.1-0.2,0.14-0.311
				c0.08-0.2,0.13-0.41,0.16-0.63c0.03-0.16,0.04-0.34,0.04-0.52c0-0.301-0.03-0.601-0.09-0.9c-0.05-0.229-0.04-0.42,0.01-0.57
				c0.02-0.069,0.06-0.14,0.12-0.199c0.08-0.08,0.19-0.131,0.33-0.171c0.05-0.01,0.1-0.02,0.15-0.029
				c0.24-0.03,0.42,0.01,0.54,0.109c0.17,0.15,0.23,0.4,0.22,0.69c0,0.01,0,0.01,0,0.02c-0.04,0.66-0.07,1.32-0.16,1.971
				c0,0.029-0.01,0.069-0.01,0.1c-0.11,0.74,0.02,1.36,0.29,1.95c0.1,0.22,0.22,0.43,0.37,0.63c0.13,0.22,0.28,0.43,0.45,0.64
				c0.31,0.4,0.58,0.83,0.85,1.261c-0.01,0.01,0,0.01,0,0.01c0.26,0.439,0.5,0.89,0.77,1.32v0.01c0.21,0.34,0.35,0.75,0.62,1.03
				c0.19,0.22,0.62,0.449,0.83,0.369c0.26-0.1,0.57-0.5,0.58-0.79c0.03-0.76-0.04-1.529-0.15-2.29c-0.4-2.68-0.84-5.35-1.26-8.029
				c-0.07-0.4-0.11-0.811-0.21-1.2c-0.52-1.97-1.33-3.12-3.98-2.91c-0.18,0.01-0.35,0.01-0.53,0.01C13.84,26.9,13.7,26.9,13.57,26.9
				c-0.04,0-0.09,0-0.13,0c-0.42,0-0.83-0.021-1.24,0c-0.67,0.02-0.99-0.32-1.05-0.931c-0.07-0.76,0.3-1.32,0.95-1.37
				c0.47-0.04,0.95,0.03,1.43,0.07c0.27,0.02,0.55,0.05,0.89,0.09c-1.12-1.52-2.22-1.89-3.7-1.43c-0.54,0.17-1.14,0.27-1.7,0.23
				c-0.31-0.04-0.72-0.39-0.83-0.7c-0.07-0.18,0.33-0.63,0.61-0.79c0.29-0.17,0.7-0.15,1.05-0.18c0.63-0.05,0.9-0.34,0.69-0.93
				c-0.13-0.4-0.44-0.73-0.69-1.08c-0.11-0.15-0.27-0.27-0.39-0.42c-0.34-0.43-0.55-0.99-0.13-1.36c0.21-0.18,0.83,0,1.21,0.15
				c0.36,0.15,0.64,0.48,0.96,0.74c0.12-0.55,0.17-1.1,0.37-1.59c0.12-0.29,0.53-0.73,0.71-0.69c0.55,0.13,0.4,0.64,0.25,1.01
				c-0.44,1.09-0.54,2.2-0.2,3.31c0.11,0.35,0.34,0.72,0.64,0.92c0.22,0.16,0.67,0.17,0.91,0.05c0.17-0.09,0.23-0.53,0.21-0.8
				c-0.02-0.41-0.2-0.8-0.23-1.2c-0.02-0.34,0.09-0.7,0.14-1.04c0.1-0.02,0.2-0.04,0.31-0.06c0.15,0.29,0.38,0.57,0.44,0.88
				c0.23,1.11,0.43,2.22,0.59,3.33c0.16,1.02,0.74,1.73,1.56,1.8c0.72,0.07,1.28-0.26,1.34-0.98c0.08-0.87-0.04-1.76-0.04-2.64
				c-0.01-1.29-0.54-2.25-1.63-2.94c-0.29-0.2-0.53-0.58-0.66-0.92c-0.11-0.28-0.15-0.73,0.01-0.92c0.16-0.2,0.59-0.19,0.9-0.25
				c0.11-0.01,0.22,0.05,0.39,0.08c-0.23-0.84-0.47-1.61-0.65-2.39c-0.11-0.49-0.06-0.98,0.43-1.28c0.71-0.42,1.18-0.04,1.28,1.22
				c0.31-0.79,0.55-1.42,0.81-2.04c0.1-0.27,0.18-0.59,0.39-0.76s0.6-0.31,0.84-0.23c0.37,0.13,0.47,0.49,0.26,0.9
				c-0.39,0.74-0.81,1.47-1.11,2.25c-0.28,0.77-0.42,1.58-0.62,2.37c0.12,0.06,0.24,0.12,0.35,0.17c0.26-0.33,0.53-0.65,0.77-1
				c0.32-0.44,0.57-0.95,0.95-1.34c0.17-0.17,0.59-0.1,0.89-0.15c-0.01,0.3,0.08,0.66-0.06,0.89c-0.46,0.76-1.05,1.44-1.49,2.2
				c-0.28,0.49-0.38,1.08-0.58,1.7c0.65-0.15,1.09-0.31,1.53-0.31c0.25,0,0.67,0.22,0.72,0.41c0.05,0.25-0.1,0.68-0.31,0.84
				c-0.43,0.33-0.96,0.55-1.45,0.79c-0.72,0.37-1.08,0.98-1.05,1.75c0.03,0.89,0.18,1.77,0.25,2.66c0.12,1.649,0.17,3.31,0.34,4.96
				c0.06,0.609,0.37,1.189,0.57,1.79c0.1-0.01,0.2-0.021,0.29-0.03c0.26-1.07,0.52-2.15,0.76-3.24c0.48-2.1,1.08-4.19,1.38-6.32
				c0.25-1.84,0.18-3.74,0.24-5.61c0.03-0.79-0.01-1.58,0.03-2.38c0.04-1.23-0.32-2.33-1.05-3.29c-0.99-1.33-2.05-2.62-3.06-3.93
				c-0.96-1.23-2.14-2-3.77-1.87c-0.14,0.01-0.29,0.01-0.43-0.02c-0.48-0.11-0.99-0.2-1.02-0.83c-0.04-0.56,0.41-1.07,1.07-1.01
				c0.89,0.07,1.78,0.3,2.66,0.48c0.18,0.03,0.33,0.17,0.56,0.29c0-0.59-0.04-1.13,0.01-1.67c0.04-0.57,0.41-0.92,0.97-1
				c0.62-0.08,0.87,0.38,0.98,0.86c0.21,0.89,0.37,1.79,0.5,2.69c0.1,0.79,0.46,1.4,1.1,1.91c0.69-0.62,0.58-1.4,0.47-2.19
				c-0.06-0.47-0.14-0.95-0.09-1.42c0.06-0.59,0.62-1.01,1.16-0.97c0.55,0.04,1.04,0.5,1,1.12c-0.04,0.56-0.2,1.12-0.39,1.65
				c-0.35,1-0.79,1.96-1.13,2.96c-0.09,0.27-0.04,0.62,0.03,0.91c0.17,0.59,0.42,1.17,1.18,1.15c0.48-0.02,1.18-0.82,1.16-1.4
				c-0.03-0.52-0.17-1.04-0.33-1.53c-0.22-0.69-0.18-1.29,0.39-1.77c0.52-0.45,1.05-0.33,1.21,0.33c0.16,0.69,0.18,1.41,0.26,2.11
				c0.25-0.01,0.57-0.08,0.86-0.03c0.229,0.04,0.56,0.2,0.609,0.38c0.051,0.17-0.16,0.44-0.3,0.65c-0.08,0.11-0.22,0.19-0.35,0.25
				c-1.811,0.86-2.39,2.5-2.61,4.29c-0.15,1.21-0.06,2.45-0.15,3.68c-0.06,0.9-0.28,1.79-0.37,2.7c-0.05,0.49-0.07,1.02,0.06,1.48
				c0.18,0.6,0.61,0.73,1.13,0.39c0.38-0.25,0.771-0.54,1.01-0.91c1.32-1.95,2.631-3.91,3.86-5.92c0.4-0.66,0.59-1.46,0.78-2.23
				c0.29-1.16-0.07-2.22-0.67-3.23c-0.45-0.76-0.92-1.53-1.19-2.37c-0.16-0.48-0.18-1.37,0.101-1.57
				c0.539-0.39,0.85,0.38,1.189,0.73c0.521,0.53,0.92,1.18,1.45,1.69c0.63,0.62,0.92,0.5,1.17-0.35c0.11-0.39,0.18-0.87,0.44-1.12
				c0.31-0.29,0.84-0.55,1.229-0.49c0.5,0.07,0.49,0.64,0.38,1.08c-0.14,0.58-0.25,1.19-0.5,1.72c-0.54,1.2-1.17,2.37-1.77,3.54
				c-0.71,1.42-1.561,2.78-2.11,4.25c-0.92,2.4-2.47,4.28-4.32,5.97c-0.14,0.13-0.27,0.27-0.43,0.38c-2.03,1.36-2.76,3.47-3.26,5.7
				c-0.06,0.29,0.07,0.62,0.11,0.94c0.31-0.051,0.72,0.01,0.93-0.17c0.71-0.601,1.39-1.25,1.979-1.95
				c0.19-0.23,0.13-0.71,0.101-1.07c-0.03-0.399-0.28-0.83-0.2-1.19c0.09-0.43,0.37-0.92,0.71-1.17c0.18-0.13,0.7,0.21,1.07,0.34
				c0.14-0.26,0.31-0.75,0.63-1.12c0.239-0.28,0.649-0.52,1.01-0.56c0.33-0.03,0.8,0.15,0.99,0.4c0.13,0.18,0,0.7-0.181,0.94
				c-0.81,1.11-1.68,2.17-2.55,3.27c0.84-0.23,1.67-0.44,2.49-0.7c1.25-0.39,2.21-1.61,2.229-3.05c0.021-1.66-0.14-3.32-0.149-4.98
				c-0.01-0.71,0.1-1.43,0.24-2.13c0.02-0.16,0.33-0.35,0.529-0.37c0.11-0.02,0.38,0.24,0.4,0.4c0.14,1.08,0.71,1.68,1.9,1.68
				c0.01,0.07,0.02,0.14,0.02,0.21c-0.45,0.44-0.88,0.91-1.35,1.33c-0.74,0.66-0.91,1.47-0.58,2.35c0.109,0.31,0.46,0.69,0.75,0.73
				c0.29,0.04,0.81-0.23,0.91-0.49c0.52-1.31,0.96-2.65,1.359-4c0.25-0.81,0.28-1.64-0.21-2.44c-0.109-0.19,0-0.67,0.17-0.83
				c0.16-0.14,0.55-0.02,0.84,0.02c0.11,0.01,0.2,0.12,0.301,0.19c0.88,0.58,1.25,0.5,1.779-0.43c0.34-0.59,0.641-1.2,1.38-1.38
				c0.7-0.17,1.16,0.21,0.921,0.87c-0.181,0.5-0.521,0.96-0.9,1.34c-0.3,0.32-0.73,0.55-1.14,0.75c-1.421,0.67-2,1.85-2.08,3.43
				c0.439-0.54,0.79-1.1,1.26-1.51c0.43-0.38,0.97-0.71,1.52-0.9c0.67-0.22,1.44,0.29,1.67,0.94c0.24,0.69-0.02,1.42-0.689,1.79
				c-0.37,0.2-0.771,0.34-1.23,0.55c2.101,0.41,2.48-0.31,2.801-2.09c0.079-0.42,0-0.86,0.01-1.3c0-0.48,0.109-0.93,0.64-1.08
				c0.54-0.16,0.88,0.17,1.13,0.57c0.21,0.34,0.351,0.73,0.54,1.16C45.9,17.18,46.06,15.73,47.42,15.81z"/>
			<path d="M14.14,32.96c0.06,0.3,0.09,0.6,0.09,0.9c0-0.29-0.04-0.591-0.1-0.891c-0.05-0.229-0.04-0.42,0.02-0.58
				C14.1,32.54,14.09,32.73,14.14,32.96z"/>
			<path d="M14.03,35.01c0.08-0.2,0.13-0.41,0.16-0.63C14.16,34.6,14.11,34.81,14.03,35.01z"/>
			<path d="M13.97,26.89C13.84,26.9,13.7,26.9,13.57,26.9C13.7,26.9,13.84,26.9,13.97,26.89z"/>
		</g>
		<g>
		</g>
	</g>
</g>
</svg>
