<?xml version="1.0" encoding="utf-8"?>
<!-- Generator: Adobe Illustrator 16.0.0, SVG Export Plug-In . SVG Version: 6.00 Build 0)  -->
<!DOCTYPE svg PUBLIC "-//W3C//DTD SVG 1.1//EN" "http://www.w3.org/Graphics/SVG/1.1/DTD/svg11.dtd">
<svg version="1.1" id="Layer_1" xmlns="http://www.w3.org/2000/svg" xmlns:xlink="http://www.w3.org/1999/xlink" x="0px" y="0px"
	 width="50px" height="50px" viewBox="0 0 50 50" enable-background="new 0 0 50 50" xml:space="preserve">
<g>
	<g id="XMLID_2_">
		<g>
			<path d="M16.798,9.782c0.517,0.289,1.028,0.589,1.591,0.849c-0.469-0.41-0.852-0.84-0.57-1.518
				c0.092,0.024,0.227,0.066,0.365,0.095c0.254,0.053,0.425,0.143,0.484,0.448c0.048,0.251,0.228,0.479,0.361,0.713
				c0.139,0.242,0.292,0.179,0.416-0.011c0.079-0.121,0.127-0.261,0.181-0.397c0.058-0.147,0.091-0.305,0.158-0.447
				c0.108-0.228,0.29-0.49,0.538-0.325c0.119,0.078,0.119,0.471,0.045,0.676c-0.121,0.325-0.346,0.609-0.564,0.974
				c0.254,0.059,0.458,0.125,0.669,0.157c0.638,0.101,1.273,0.211,1.914,0.274c0.645,0.063,0.878-0.12,0.899-0.754
				c0.026-0.766,0.003-1.529-0.406-2.234c-0.239-0.408-0.316-0.877-0.143-1.341c0.379-1,0.783-1.992,1.16-2.993
				c0.254-0.677,0.74-1.126,1.34-1.493c0.34-0.208,0.695-0.43,0.955-0.725c0.77-0.873,2.008-0.517,2.523,0.173
				c0.434,0.583,0.655,1.247,0.782,1.949c0.198,1.102,0.407,2.202,0.581,3.307c0.065,0.413-0.104,0.789-0.262,1.187
				c-0.369,0.924-1.059,1.629-1.547,2.467c-0.439,0.761-0.531,1.481-0.129,2.278c0.475,0.947,0.926,1.909,1.363,2.874
				c0.166,0.363,0.265,0.756,0.4,1.159c0.457-0.608,0.918-1.223,1.377-1.837c0.031,0.016,0.063,0.031,0.092,0.047
				c0.012,0.096,0.004,0.198,0.036,0.286c0.2,0.553,0.175,0.683-0.249,1.084c-0.143,0.135-0.311,0.25-0.424,0.405
				c-0.092,0.13-0.204,0.351-0.152,0.454c0.069,0.142,0.283,0.286,0.44,0.293c0.35,0.015,0.702-0.054,1.054-0.091
				c0.121-0.012,0.25-0.058,0.361-0.032c0.174,0.043,0.445,0.099,0.482,0.212c0.059,0.178,0.012,0.45-0.099,0.604
				c-0.085,0.119-0.349,0.192-0.509,0.16c-0.367-0.072-0.713-0.248-1.079-0.329c-0.177-0.041-0.378,0.034-0.567,0.059
				c0.088,0.198,0.137,0.431,0.273,0.586c0.188,0.212,0.446,0.364,0.666,0.552c0.049,0.042,0.059,0.129,0.096,0.215
				c-0.32,0.205-0.658,0.301-1.006,0.204c-0.136-0.038-0.318-0.23-0.321-0.357c-0.01-0.435-0.31-0.704-0.597-0.851
				c-0.605-0.31-1.18-0.689-1.896-0.803c-0.607-0.099-0.713-0.416-0.528-0.767c0.175-0.33,0.476-0.38,0.745-0.115
				c0.133,0.131,0.253,0.275,0.379,0.415c0.041-0.027,0.082-0.053,0.123-0.08c-0.363-0.677-0.728-1.353-1.092-2.03
				c-0.043-0.004-0.085-0.007-0.129-0.012c-0.08,0.237-0.195,0.468-0.235,0.711c-0.071,0.421-0.137,0.85-0.127,1.274
				c0.03,1.289-0.376,2.496-0.622,3.737c-0.311,1.578-0.931,2.988-1.887,4.27c-0.267,0.357-0.465,0.769-0.693,1.154
				c0.018,0.029,0.036,0.059,0.053,0.087c0.437-0.122,0.871-0.249,1.311-0.365c0.553-0.146,1.101-0.323,1.662-0.413
				c0.699-0.109,1.08,0.249,1.097,0.934c0.022,0.989-0.472,2.643-1.087,3.487c0.469-0.096,0.846-0.181,1.227-0.25
				c0.287-0.053,0.575-0.104,0.864-0.123c0.101-0.006,0.286,0.07,0.295,0.131c0.017,0.109-0.038,0.306-0.118,0.339
				c-0.414,0.176-0.533,0.483-0.557,0.905c-0.018,0.312-0.254,0.489-0.596,0.496c-0.008,0.071-0.02,0.13-0.019,0.188
				c0,0.545-0.292,0.836-0.835,0.791c-0.086-0.007-0.186-0.155-0.232-0.258c-0.109-0.237-0.191-0.487-0.284-0.733
				c-0.054,0.018-0.109,0.036-0.165,0.055c0.063,0.195,0.152,0.388,0.177,0.588c0.024,0.212,0.048,0.582-0.04,0.619
				c-0.236,0.1-0.549,0.124-0.799,0.056c-0.293-0.079-0.193-0.381-0.156-0.602c0.037-0.211,0.106-0.417,0.158-0.623
				c-0.046-0.019-0.093-0.037-0.14-0.055c-0.108,0.263-0.23,0.522-0.322,0.793c-0.162,0.478-0.374,0.601-0.819,0.376
				c-0.169-0.086-0.396-0.323-0.375-0.458c0.029-0.198,0.244-0.378,0.404-0.545c0.123-0.13,0.375-0.205,0.409-0.344
				c0.219-0.893,0.393-1.795,0.58-2.694c-0.035-0.019-0.072-0.038-0.107-0.056c-0.262,0.15-0.524,0.3-0.785,0.452
				c-0.338,0.195-0.664,0.408-1.012,0.584c-0.336,0.172-0.552,0.417-0.657,0.782c-0.102,0.362-0.246,0.712-0.357,1.071
				c-0.215,0.699-0.267,1.397-0.052,2.117c0.081,0.271,0.05,0.58,0.04,0.87c-0.031,0.954,0.002,1.897,0.385,2.793
				c0.02,0.045,0.049,0.092,0.048,0.138c-0.012,1.497,0.804,2.734,1.29,4.074c0.095,0.264,0.298,0.498,0.484,0.716
				c0.5,0.584,0.992,1.179,1.537,1.719c0.424,0.416,0.922,0.756,1.387,1.132c0.361,0.291,0.711,0.598,1.084,0.874
				c1.184,0.882,2.438,1.63,3.883,2.012c0.686,0.182,1.352,0.466,2.047,0.577c0.741,0.118,1.506,0.097,2.262,0.119
				c0.11,0.004,0.221-0.105,0.336-0.119c0.123-0.014,0.25,0.024,0.375,0.039c-0.081,0.127-0.137,0.333-0.248,0.369
				c-0.521,0.167-1.052,0.226-1.608,0.158c-0.585-0.071-1.188-0.003-1.771-0.085c-0.912-0.128-1.822-0.287-2.711-0.518
				c-0.549-0.142-1.055-0.444-1.584-0.665c-1.934-0.807-3.59-2.064-5.264-3.287c-0.368-0.27-0.59-0.737-0.881-1.112
				c-0.379-0.493-0.769-0.979-1.138-1.481c-0.444-0.601-0.817-1.232-0.988-1.979c-0.089-0.386-0.276-0.756-0.46-1.111
				c-0.288-0.557-0.383-1.148-0.434-1.761c-0.026-0.313-0.155-0.621-0.159-0.932c-0.009-0.637-0.163-1.239-0.297-1.854
				c-0.071-0.322,0.037-0.679,0.004-1.015c-0.067-0.627-0.121-1.265-0.283-1.87c-0.176-0.644-0.345-0.703-0.998-0.682
				c-0.867,0.03-1.735,0.05-2.603,0.081c-0.453,0.016-0.623,0.191-0.555,0.617c0.154,0.977-0.105,1.84-0.721,2.59
				c-0.202,0.245-0.224,0.479-0.154,0.746c0.111,0.411,0.247,0.815,0.364,1.225c0.134,0.475-0.35,1.014-0.829,0.905
				c-0.099-0.022-0.224-0.19-0.231-0.3c-0.025-0.363,0.006-0.731-0.004-1.098c-0.01-0.341-0.046-0.682-0.076-1.021
				c-0.005-0.059-0.039-0.112-0.074-0.209c-0.717,0.293-1.325,0.711-1.698,1.375c-0.169,0.3-0.372,0.451-0.674,0.531
				c-0.117,0.031-0.234,0.079-0.354,0.089c-0.161,0.014-0.324-0.002-0.487-0.005c0.032-0.184,0.001-0.424,0.108-0.54
				c0.261-0.281,0.581-0.506,0.88-0.753c0.343-0.284,0.729-0.531,1.022-0.86c0.277-0.311,0.167-0.542-0.251-0.586
				c-0.484-0.051-0.976-0.035-1.462-0.065c-0.311-0.02-0.634-0.046-0.608-0.498c0.003-0.052-0.075-0.108-0.116-0.162
				c-0.058-0.078-0.118-0.156-0.177-0.235c0.096-0.04,0.187-0.098,0.288-0.121c0.608-0.146,1.174-0.07,1.72,0.265
				c0.209,0.13,0.494,0.143,0.744,0.208c0.018-0.046,0.035-0.093,0.051-0.139c-0.168-0.067-0.332-0.146-0.502-0.201
				c-0.642-0.205-0.67-0.29-0.824-1.012c-0.047-0.215,0.063-0.321,0.249-0.295c0.197,0.027,0.412,0.082,0.571,0.193
				c0.269,0.188,0.493,0.438,0.748,0.646c0.136,0.11,0.299,0.188,0.525,0.327c0.009-0.188,0.06-0.329,0.012-0.38
				c-0.218-0.234-0.114-0.476-0.054-0.721c0.137-0.555,0.28-1.108,0.408-1.666c0.027-0.113,0.034-0.248,0.001-0.358
				c-0.123-0.419,0.039-0.716,0.377-0.939c0.681-0.45,1.462-0.589,2.247-0.705c0.84-0.123,1.681-0.226,2.607-0.351
				c-0.138-0.43-0.25-0.771-0.356-1.112c-0.051-0.162-0.133-0.327-0.131-0.492c0.013-0.782-0.047-1.546-0.218-2.318
				c-0.219-0.989,0.067-1.93,0.445-2.845c0.115-0.28,0.19-0.577,0.294-0.862c0.215-0.591,0.437-1.18,0.66-1.769
				c0.037-0.102,0.111-0.193,0.139-0.298c0.361-1.365,1.117-2.56,1.648-3.851c0.174-0.42,0.273-0.871,0.412-1.324
				c-0.762-0.064-1.439-0.145-2.12-0.17c-0.405-0.015-0.745-0.111-1.048-0.51c-0.245,0.224-0.479,0.421-0.691,0.636
				c-0.302,0.304-0.58,0.629-0.887,0.927c-0.071,0.069-0.217,0.095-0.325,0.09c-0.204-0.01-0.406-0.06-0.672-0.103
				c0.162-0.83,1.1-0.911,1.517-1.597c-0.293,0.079-0.511,0.124-0.719,0.195c-0.302,0.099-0.604,0.195-0.89,0.331
				c-0.372,0.176-0.629,0.023-0.87-0.234c-0.194-0.207-0.151-0.357,0.12-0.406c0.611-0.109,1.225-0.204,1.837-0.3
				c0.093-0.014,0.188-0.014,0.311-0.022c-0.062-0.356-0.342-0.478-0.573-0.63c-0.162-0.106-0.375-0.141-0.521-0.259
				c-0.161-0.132-0.32-0.309-0.387-0.499c-0.044-0.125,0.058-0.319,0.137-0.458C16.47,9.664,16.692,9.724,16.798,9.782z"/>
		</g>
		<g>
		</g>
	</g>
</g>
</svg>
