<?xml version="1.0" encoding="utf-8"?>
<!-- Generator: Adobe Illustrator 16.0.0, SVG Export Plug-In . SVG Version: 6.00 Build 0)  -->
<!DOCTYPE svg PUBLIC "-//W3C//DTD SVG 1.1//EN" "http://www.w3.org/Graphics/SVG/1.1/DTD/svg11.dtd">
<svg version="1.1" id="Layer_1" xmlns="http://www.w3.org/2000/svg" xmlns:xlink="http://www.w3.org/1999/xlink" x="0px" y="0px"
	 width="50px" height="50px" viewBox="0 0 50 50" enable-background="new 0 0 50 50" xml:space="preserve">
<g>
	<g id="XMLID_1_">
		<g>
			<path d="M43.427,38.931c0.089,0.455,0.179,0.907,0.268,1.365c0,0.542,0,1.084,0,1.624c-0.14-0.811-0.276-1.622-0.416-2.434
				C43.328,39.301,43.377,39.116,43.427,38.931z"/>
			<path d="M13.715,39.787c-0.416,1.689-0.127,3.252,0.359,4.854c0.393,1.285,0.688,2.598,1.009,3.904
				c0.052,0.216,0.011,0.451,0.012,0.678c-0.084-0.047-0.222-0.072-0.247-0.139c-0.825-2.186-1.689-4.359-2.421-6.576
				c-0.208-0.633-0.085-1.398-0.009-2.092c0.186-1.674,0.436-3.337,0.653-5.008c0.102-0.794,0.054-1.637,0.32-2.365
				c0.201-0.542,0.771-0.965,1.225-1.389c0.682-0.643,1.418-1.222,2.107-1.857c1.388-1.273,2.752-2.568,4.133-3.851
				c0.37-0.343,0.763-0.663,1.079-1.103c-1.531,0.373-3.066,0.73-4.594,1.118c-1.473,0.378-2.941,0.771-4.401,1.191
				c-0.294,0.084-0.631,0.265-0.797,0.505c-1.382,2.028-2.782,4.047-4.054,6.141c-0.388,0.637-0.416,1.503-0.572,2.27
				c-0.24,1.182-0.447,2.368-0.669,3.555c-0.05-0.139-0.099-0.281-0.149-0.418c0.137-1.69,0.238-3.385,0.44-5.066
				c0.054-0.447,0.412-0.865,0.649-1.288c1.178-2.104,2.353-4.212,3.557-6.297c0.121-0.216,0.406-0.388,0.651-0.464
				c3.24-1.015,6.488-2.008,9.732-3.008c0.031-0.01,0.057-0.042,0.119-0.095c-1.698-1.144-3.389-2.267-5.06-3.421
				c-0.317-0.219-0.63-0.516-0.809-0.851c-0.878-1.641-1.654-3.341-2.58-4.955c-0.69-1.205-0.797-2.515-1.001-3.818
				c-0.225-1.421-0.446-2.844-0.64-4.27c-0.056-0.408-0.008-0.829,0.138-1.265c0.166,0.705,0.331,1.41,0.492,2.114
				c0.363,1.57,0.695,3.147,1.098,4.706c0.164,0.633,0.442,1.248,0.741,1.833c0.874,1.718,1.737,3.446,2.711,5.104
				c0.286,0.486,0.907,0.804,1.417,1.125c1.234,0.775,2.495,1.505,3.851,2.317c-0.582-1.447-1.126-2.811-1.675-4.175
				c-0.495-1.227-1.056-2.435-1.465-3.69c-0.229-0.705-0.275-1.486-0.293-2.236c-0.072-3.152-0.1-6.303-0.147-9.457
				c-0.005-0.294-0.041-0.588,0.049-0.893c0.07,0.458,0.16,0.916,0.207,1.377c0.148,1.417,0.265,2.837,0.422,4.25
				c0.158,1.413,0.352,2.82,0.525,4.23c0.056,0.439,0.056,0.893,0.156,1.324c0.143,0.615,0.286,1.245,0.549,1.813
				c0.886,1.909,1.825,3.792,2.778,5.758c0.529-0.646,0.837-1.453,1.816-1.433c0.965,0.021,1.263,0.767,1.716,1.473
				c0.843-1.759,1.686-3.472,2.482-5.209c0.336-0.734,0.652-1.499,0.823-2.284c0.214-1.015,0.275-2.064,0.402-3.099
				c0.172-1.411,0.347-2.82,0.51-4.232c0.07-0.619,0.098-1.244,0.179-1.862c0.021-0.17,0.164-0.321,0.252-0.481
				c0.002,1.512,0.02,3.024-0.001,4.537c-0.026,1.73,0.031,3.473-0.174,5.183c-0.136,1.11-0.642,2.187-1.047,3.253
				c-0.737,1.93-1.523,3.84-2.334,5.866c1.524-0.925,2.933-1.824,4.384-2.642c0.603-0.339,0.948-0.835,1.247-1.398
				c0.714-1.355,1.371-2.741,2.138-4.063c1.021-1.764,1.28-3.745,1.754-5.667c0.27-1.096,0.505-2.202,0.756-3.304
				c0.074,0.008,0.15,0.019,0.227,0.027c-0.069,0.776-0.106,1.557-0.215,2.325c-0.235,1.711-0.505,3.416-0.771,5.123
				c-0.028,0.192-0.08,0.393-0.167,0.566c-1.07,2.117-2.143,4.233-3.239,6.336c-0.133,0.254-0.396,0.463-0.645,0.628
				c-1.699,1.148-3.41,2.278-5.173,3.449c1.943,0.604,3.804,1.182,5.667,1.763c1.072,0.333,2.126,0.764,3.223,0.982
				c1.18,0.234,1.846,0.909,2.376,1.922c1.047,1.997,2.199,3.94,3.244,5.938c0.256,0.491,0.332,1.094,0.393,1.656
				c0.132,1.22,0.198,2.443,0.291,3.668v0.001c-0.05,0.186-0.099,0.37-0.148,0.556c-0.215-1.119-0.577-2.233-0.615-3.357
				c-0.058-1.743-0.979-3.031-1.878-4.364c-0.927-1.379-1.827-2.772-2.813-4.106c-0.241-0.322-0.747-0.516-1.17-0.631
				c-2.724-0.736-5.456-1.435-8.19-2.14c-0.135-0.036-0.285-0.019-0.549-0.03c1.311,1.184,2.535,2.287,3.754,3.394
				c0.616,0.556,1.233,1.11,1.842,1.675c0.757,0.701,1.462,1.467,2.27,2.104c0.772,0.606,0.903,1.397,1,2.276
				c0.182,1.631,0.466,3.248,0.64,4.881c0.117,1.114,0.398,2.313,0.117,3.348c-0.581,2.141-1.489,4.194-2.274,6.278
				c-0.026,0.067-0.163,0.091-0.247,0.138c0.284-1.384,0.553-2.77,0.862-4.145c0.199-0.883,0.566-1.739,0.666-2.624
				c0.077-0.724-0.104-1.483-0.213-2.222c-0.246-1.664-0.515-3.322-0.776-4.984c-0.091-0.566-0.14-1.148-0.301-1.694
				c-0.07-0.232-0.374-0.409-0.591-0.583c-2.067-1.669-4.138-3.331-6.285-4.929c0.334,0.608,0.652,1.224,1.008,1.819
				c0.913,1.524,1.359,3.212,1.662,4.924c0.32,1.806,0.3,3.633-0.369,5.401c-0.79,2.086-2.244,3.301-4.475,3.646
				c-1.572,0.245-3.049,0.095-4.465-0.62c-1.631-0.822-2.503-2.221-2.843-3.942c-0.802-4.069,0.371-7.704,2.558-11.096
				c0.053-0.079,0.098-0.169,0.072-0.312c-1.734,1.407-3.469,2.811-5.205,4.215c-0.153,0.127-0.312,0.254-0.484,0.35
				c-1.236,0.676-1.45,1.838-1.58,3.104C14.25,36.777,14.077,38.309,13.715,39.787z"/>
			<path d="M6.848,39.621c-0.184,0.946-0.367,1.894-0.553,2.843c0-0.229,0-0.451,0-0.68c0.091-0.657,0.179-1.313,0.276-1.97
				c0.03-0.205,0.083-0.41,0.127-0.611C6.75,39.34,6.798,39.482,6.848,39.621z"/>
		</g>
		<g>
		</g>
	</g>
</g>
</svg>
