<?xml version="1.0" encoding="utf-8"?>
<!-- Generator: Adobe Illustrator 16.0.0, SVG Export Plug-In . SVG Version: 6.00 Build 0)  -->
<!DOCTYPE svg PUBLIC "-//W3C//DTD SVG 1.1//EN" "http://www.w3.org/Graphics/SVG/1.1/DTD/svg11.dtd">
<svg version="1.1" id="Layer_1" xmlns="http://www.w3.org/2000/svg" xmlns:xlink="http://www.w3.org/1999/xlink" x="0px" y="0px"
	 width="50px" height="50px" viewBox="0 0 50 50" enable-background="new 0 0 50 50" xml:space="preserve">
<g>
	<g id="XMLID_7_">
		<g>
			<path d="M32.822,19.581c-0.453,0.179-0.789-0.45-1.392-0.039c-1.175,0.802-1.243,1.952-1.36,3.14
				c0.078,0.111,0.156,0.216,0.236,0.326c0.844-0.695,1.745-1.336,2.499-2.118C33.026,20.663,32.831,20.03,32.822,19.581z
				 M26.416,27.428c0.448-0.705,0.894-1.41,1.411-2.233C26.612,25.391,26.342,25.797,26.416,27.428z M7.452,15.589
				c-0.06,0.076-0.12,0.152-0.18,0.231c0.575,0.961,1.153,1.917,1.816,3.029c-0.041-0.396-0.115-0.711-0.097-1.029
				c0.022-0.365,0.128-0.724,0.229-1.256C8.72,16.286,8.085,15.938,7.452,15.589z M35.241,20.092
				c-1.77,1.658-2.536,4.041-3.107,6.588c1.031-0.499,1.937-1.087,2.746-1.79c0.563-0.487,0.907-1.124,0.479-1.944
				c-0.111-0.21-0.045-0.705,0.122-0.835c0.585-0.462,1.247-0.818,1.884-1.212c0.074,0.089,0.151,0.177,0.226,0.264
				c0.088-0.421,0.177-0.843,0.311-1.477C36.998,19.824,36.249,19.937,35.241,20.092z M22.759,22.725
				c-0.979,0.681-2.26,0.779-3.258,0.081c0.402,1.621,1.033,2.889,2.14,3.849c1.029,0.889,1.878,0.588,2.109-0.728
				c0.146-0.839,0.219-1.695,0.243-2.542c0.013-0.377-0.173-0.757-0.268-1.136C23.4,22.407,23.049,22.527,22.759,22.725z
				 M41.171,24.71c-0.384,0.872-1.029,1.051-1.885,0.711c-0.235-0.097-0.629-0.13-0.796,0c-0.874,0.685-1.612,0.212-2.169-0.109
				c-2.462,1.583-4.811,3.093-7.156,4.608c-0.171,0.115-0.33,0.247-0.491,0.377c-1.902,1.479-2.973,3.358-2.822,5.843
				c0.237,3.935,0.431,7.87,0.711,11.802c0.046,0.644-0.08,0.976-0.653,1.163c-0.328,0.109-0.643,0.252-0.975,0.324
				c-0.196,0.041-0.377,0.062-0.548,0.062c-0.887,0-1.417-0.563-1.408-1.6c0.033-3.773,0.125-7.553,0.138-11.328
				c0.008-1.711-0.083-3.429-0.188-5.138c-0.078-1.237-0.561-2.319-1.536-3.132c-1.419-1.18-2.806-2.4-4.295-3.48
				c-0.736-0.53-1.033-0.258-1.031,0.631c0,0.223-0.221,0.642-0.318,0.635c-0.326-0.021-0.643-0.191-0.917-0.289
				c-0.388,0.184-0.754,0.359-1.124,0.537c-0.132-0.353-0.262-0.709-0.427-1.153c-0.023,0-0.216-0.056-0.272,0.01
				c-0.721,0.843-1.392,1.148-1.987-0.12c-0.031-0.066-0.171-0.076-0.258-0.122c-0.435-0.217-0.866-0.433-1.493-0.749
				c-0.14,0.165-0.476,0.557-0.911,1.066c-0.507-0.585-0.971-1.115-1.487-1.705c0.324-0.398,0.654-0.8,0.985-1.204
				c-0.043-0.105-0.084-0.204-0.127-0.312c-0.821,0-1.641,0.006-2.462-0.004c-0.083-0.002-0.231-0.084-0.239-0.148
				c-0.068-0.435-0.101-0.878-0.161-1.32c-0.054-0.392-0.128-0.777-0.192-1.167c0.083-0.015,0.163-0.025,0.246-0.04
				c-0.235-0.326-0.472-0.651-0.709-0.977c0.214-0.12,0.429-0.239,0.699-0.392c-0.148-0.191-0.324-0.416-0.499-0.641
				c0.981-0.837,1.934-1.655,2.806-2.404c-0.315-0.369-0.527-0.619-0.74-0.868c0.321-0.25,0.645-0.495,1.037-0.796
				c-1.248-1.035,0.478-1.365,0.441-2.078c0.705,0.115,1.32,0.214,2.153,0.354c-0.212-0.905-0.365-1.501-0.489-2.105
				C9.598,9.342,9.644,9.142,9.726,9.088c0.654-0.427,1.113-0.953,1.516-1.66c0.396-0.699,1.21-1.163,1.889-1.771
				c-0.612-1.068-0.278-1.701,0.975-1.796c-0.227-0.804-0.278-1.39,0.74-1.443c0.231-0.012,0.437-0.532,0.637-0.798
				c1.198,0.872,2.229,1.229,3.606,0.749c0.559-0.196,1.431,0.497,2.324,0.855c0.668-0.489,1.369-0.243,1.977,0.889
				c0.134,0.248,0.493,0.373,0.747,0.553c0.008-0.326,0.019-0.649,0.021-0.976c0.004-0.625,0-1.251,0-2.107
				c0.423,0.068,0.831,0.021,1.074,0.2c0.315,0.233,0.495,0.732,0.967,0.303c0.273-0.25,0.478-0.571,0.868-1.053
				c0.917-0.192,3.5,1.895,3.891,3.466c0.702,0.033,0.125-2.472,1.651-0.821c0.8,0.045-0.054-2.676,1.765-1.008
				c0.62-0.621,1.111-0.523,1.317,0.396c1.146-0.808,1.167-0.802,1.349,0.293c0.243-0.081,0.477-0.155,0.722-0.239
				c0.503,1.25,0.991,2.472,1.443,3.596c0.499-0.043,0.843-0.072,1.186-0.103c-0.031,0.377-0.058,0.752-0.107,1.375
				c0.948-1.008,1.855-0.567,2.598-0.136c0.365,0.458,0.668,0.837,1.099,1.383c0,0.631,0,1.513,0,2.315
				c-0.466,0.266-0.88,0.503-1.26,0.72c0.376,1.427,1.413,0.884,2.246,0.936c0.039,0.387,0.072,0.722,0.104,1.053
				c0.39,0.068,0.771,0.13,1.013,0.173c0.18,1.521,0.4,2.916,0.47,4.322c0.025,0.447-0.264,0.987-0.563,1.354
				c-0.365,0.452-0.559,0.79-0.414,1.425c0.171,0.788,0.232,1.707-0.986,1.868c-0.142,0.017-0.317,0.244-0.373,0.408
				C43.772,25.114,42.276,25.603,41.171,24.71z M29.128,20.881c-1.384,0.734-2.26,1.928-2.093,2.804
				C28.319,23.743,29.097,22.735,29.128,20.881z M31.806,22.913c-0.653,0.379-1.353,0.567-1.688,1.022
				c-1.307,1.769-2.497,3.625-3.738,5.463C28.583,29.673,31.48,26.302,31.806,22.913z"/>
		</g>
		<g>
		</g>
	</g>
</g>
</svg>
