<?xml version="1.0" encoding="utf-8"?>
<!-- Generator: Adobe Illustrator 16.0.0, SVG Export Plug-In . SVG Version: 6.00 Build 0)  -->
<!DOCTYPE svg PUBLIC "-//W3C//DTD SVG 1.1//EN" "http://www.w3.org/Graphics/SVG/1.1/DTD/svg11.dtd">
<svg version="1.1" id="Layer_1" xmlns="http://www.w3.org/2000/svg" xmlns:xlink="http://www.w3.org/1999/xlink" x="0px" y="0px"
	 width="50px" height="50px" viewBox="0 0 50 50" enable-background="new 0 0 50 50" xml:space="preserve">
<g>
	<g id="XMLID_1_">
		<g>
			<path d="M21.747,39.541c0.285,0.125,0.438,0.354,0.538,0.633c0.037,0.104,0.087,0.203,0.119,0.309
				c0.059,0.193,0.187,0.275,0.386,0.295c0.366,0.039,0.7,0.146,0.867,0.529c0.017,0.039,0.114,0.064,0.173,0.061
				c0.453-0.023,0.879,0.043,1.253,0.328c0.14,0.104,0.302,0.152,0.481,0.129c0.109-0.014,0.221-0.006,0.33-0.004
				c0.254,0.006,0.51,0.096,0.758-0.016c0.246-0.109,0.502-0.145,0.766-0.131c0.246,0.012,0.492,0.029,0.738,0.031
				c0.191,0.002,0.373-0.049,0.531-0.152c-0.135-0.055-0.266-0.113-0.4-0.156c-0.139-0.047-0.283-0.104-0.428-0.107
				c-0.209-0.006-0.404-0.039-0.598-0.123c-0.598-0.262-1.121-0.643-1.648-1.016c-0.17-0.123-0.279-0.336-0.398-0.52
				c-0.125-0.191-0.238-0.393-0.344-0.596c-0.087-0.164-0.173-0.33-0.227-0.506c-0.097-0.314-0.155-0.641-0.253-0.953
				c-0.094-0.301-0.122-0.582,0.032-0.873c0.122-0.229,0.139-0.475,0.003-0.707c-0.132-0.229-0.117-0.447,0.007-0.672
				c0.083-0.146,0.109-0.303,0.064-0.465c-0.126-0.479-0.256-0.957-0.388-1.436c-0.013-0.049-0.039-0.094-0.063-0.135
				c-0.091-0.156-0.19-0.201-0.365-0.164c-0.131,0.027-0.263,0.063-0.395,0.098c-0.276,0.072-0.54,0.092-0.727-0.225
				c-0.014,0.076-0.022,0.119-0.027,0.162c-0.034,0.27-0.118,0.529-0.303,0.727c-0.167,0.174-0.186,0.363-0.139,0.566
				c0.08,0.357,0.04,0.682-0.154,0.996c-0.138,0.225-0.192,0.469-0.14,0.736c0.053,0.27-0.027,0.48-0.293,0.609
				c-0.177,0.086-0.173,0.125-0.096,0.311c0.159,0.377,0.146,0.764-0.135,1.057c-0.359,0.377-0.252,0.383,0.014,0.664
				c0.091,0.1,0.188,0.229,0.208,0.354C21.521,39.357,21.596,39.475,21.747,39.541z M44.643,32.607
				c0.387-0.17,0.779-0.123,1.162,0.004c0.414,0.137,0.816,0.305,1.232,0.441c0.188,0.063,0.387,0.1,0.586,0.123
				c0.354,0.039,0.648-0.094,0.885-0.357c0.197-0.221,0.238-0.449,0.096-0.707c-0.088-0.16-0.211-0.303-0.326-0.449
				c-0.102-0.129-0.215-0.252-0.316-0.383c-0.023-0.031-0.018-0.082-0.027-0.125c0.041-0.006,0.088-0.027,0.123-0.016
				c0.547,0.184,0.986,0.477,1.084,1.104c0.004,0.018,0.018,0.035,0.025,0.053c0,0.139,0,0.281,0,0.422
				c-0.023,0.074-0.047,0.148-0.074,0.223c-0.195,0.521-0.611,0.781-1.117,0.92c-0.498,0.137-0.992,0.066-1.482-0.074
				c-0.311-0.088-0.633-0.188-0.951-0.197c-0.529-0.014-0.916,0.303-1.227,0.697c-0.174,0.221-0.316,0.477-0.441,0.732
				c-0.273,0.551-0.672,0.963-1.23,1.232c-0.27,0.131-0.516,0.309-0.766,0.477c-0.256,0.172-0.521,0.297-0.834,0.309
				c-0.152,0.006-0.279,0.066-0.381,0.186c-0.176,0.203-0.398,0.273-0.664,0.219c-0.064-0.012-0.17,0.006-0.203,0.049
				c-0.162,0.221-0.406,0.27-0.643,0.32c-0.156,0.035-0.33,0.016-0.49-0.014c-0.129-0.02-0.209,0.01-0.281,0.113
				c-0.234,0.342-0.68,0.48-1.07,0.34c-0.086-0.031-0.17-0.08-0.256-0.086c-0.109-0.008-0.248-0.02-0.328,0.039
				c-0.307,0.221-0.631,0.211-0.979,0.148c-0.201-0.035-0.41-0.059-0.609-0.039c-0.262,0.023-0.5-0.002-0.719-0.154
				c-0.162-0.113-0.307-0.145-0.51-0.041c-0.395,0.203-0.699,0.086-0.896-0.303c-0.066-0.129-0.152-0.16-0.289-0.154
				c-0.203,0.008-0.414,0.01-0.609-0.029c-0.264-0.051-0.465-0.215-0.6-0.449c-0.082-0.146-0.207-0.23-0.354-0.309
				c-0.193-0.104-0.363-0.248-0.549-0.367c-0.182-0.117-0.357-0.246-0.551-0.336c-0.227-0.104-0.396-0.252-0.506-0.471
				c-0.145-0.293-0.334-0.541-0.598-0.744c-0.113-0.088-0.164-0.256-0.246-0.385c-0.072-0.117-0.129-0.25-0.225-0.348
				c-0.111-0.111-0.256-0.088-0.326,0.055c-0.086,0.172-0.156,0.357-0.197,0.547c-0.193,0.857-0.283,1.727-0.15,2.602
				c0.049,0.318,0.152,0.633,0.264,0.936c0.117,0.313,0.344,0.551,0.623,0.736c0.729,0.486,1.543,0.762,2.381,0.984
				c0.416,0.111,0.834,0.223,1.238,0.367c0.918,0.322,1.42,1.006,1.611,1.941c0.018,0.082,0.039,0.164,0.053,0.248
				c0.102,0.557,0.563,0.789,1.086,0.652c0.102-0.025,0.203-0.057,0.297-0.104c0.307-0.156,0.625-0.207,0.965-0.152
				c0.365,0.055,0.734,0.1,1.102,0.15s0.619,0.273,0.809,0.57c0.037,0.055,0.029,0.139,0.039,0.209c-0.068,0-0.143,0.02-0.205,0
				c-0.188-0.051-0.369-0.131-0.559-0.174c-0.09-0.02-0.205,0-0.287,0.043c-0.367,0.186-0.742,0.295-1.16,0.258
				c-0.121-0.01-0.268,0.031-0.369,0.1c-0.531,0.34-1.096,0.332-1.668,0.174c-0.367-0.102-0.727-0.229-1.078-0.371
				c-0.225-0.092-0.4-0.26-0.514-0.49c-0.039-0.076-0.131-0.133-0.207-0.186c-0.084-0.055-0.182-0.088-0.268-0.139
				c-0.117-0.066-0.166-0.168-0.186-0.305c-0.021-0.141-0.078-0.279-0.143-0.404c-0.041-0.08-0.127-0.123-0.232-0.074
				c-0.037,0.018-0.096,0.002-0.141-0.014c-0.107-0.039-0.213-0.086-0.328-0.135c-0.006,0.111-0.002,0.215-0.02,0.314
				c-0.02,0.121-0.078,0.141-0.178,0.072c-0.033-0.021-0.064-0.051-0.09-0.08c-0.227-0.254-0.516-0.305-0.826-0.219
				c-0.467,0.131-0.926,0.309-1.398,0.41C27.289,42.986,26.15,43.23,25,43.408c-1.097,0.168-2.195,0.111-3.249-0.299
				c-1.041-0.408-1.834-1.125-2.489-2.008c-0.61-0.824-1.048-1.732-1.24-2.748c-0.126-0.666-0.144-1.338-0.06-2.01
				c0.075-0.596,0.187-1.186,0.286-1.801c-0.128,0.061-0.273,0.109-0.398,0.189c-0.167,0.109-0.348,0.15-0.542,0.152
				c-0.181,0.004-0.337,0.068-0.445,0.215c-0.178,0.246-0.421,0.355-0.714,0.395c-0.101,0.014-0.229,0.066-0.284,0.145
				c-0.211,0.297-0.515,0.359-0.841,0.396c-0.093,0.012-0.187,0.055-0.271,0.102c-0.074,0.039-0.137,0.104-0.2,0.16
				c-0.202,0.178-0.438,0.264-0.705,0.25c-0.312-0.014-0.597,0.059-0.855,0.234c-0.28,0.189-0.579,0.24-0.899,0.102
				c-0.096-0.041-0.203-0.061-0.307-0.074c-0.05-0.008-0.125-0.002-0.153,0.031c-0.178,0.195-0.408,0.203-0.641,0.188
				c-0.144-0.012-0.29-0.035-0.429-0.074c-0.09-0.023-0.202-0.061-0.247-0.131c-0.111-0.172-0.237-0.139-0.397-0.098
				c-0.442,0.121-0.885-0.082-1.097-0.496c-0.058-0.111-0.133-0.168-0.261-0.156c-0.434,0.031-0.748-0.148-0.94-0.539
				c-0.056-0.113-0.138-0.145-0.268-0.139c-0.494,0.033-0.878-0.148-1.113-0.605c-0.028-0.055-0.112-0.105-0.174-0.109
				c-0.262-0.023-0.432-0.15-0.505-0.4c-0.069-0.242-0.212-0.418-0.429-0.539c-0.201-0.113-0.333-0.287-0.421-0.498
				c-0.045-0.111-0.088-0.223-0.134-0.334c-0.222-0.533-0.597-0.715-1.161-0.574c-0.334,0.084-0.566,0.273-0.71,0.592
				c-0.122,0.268-0.255,0.535-0.42,0.777c-0.304,0.445-0.634,0.502-1.196,0.389c-0.068-0.014-0.128-0.07-0.192-0.109
				c0-0.039,0-0.08,0-0.119c0.177-0.094,0.349-0.197,0.531-0.277c0.25-0.117,0.433-0.293,0.543-0.541
				c0.127-0.287,0.257-0.576,0.366-0.873c0.224-0.609,0.68-0.896,1.298-0.963c0.613-0.066,1.145,0.123,1.568,0.574
				c0.511,0.541,1.048,1.053,1.63,1.518c0.888,0.711,1.917,1.088,3.017,1.279c1.259,0.221,2.43-0.043,3.486-0.758
				c0.809-0.549,1.686-0.949,2.595-1.291c0.057-0.021,0.11-0.047,0.188-0.078c-0.175-0.086-0.339-0.082-0.5-0.053
				c-0.355,0.064-0.71,0.135-1.063,0.207c-0.325,0.063-0.622,0.016-0.869-0.219c-0.207-0.195-0.439-0.295-0.733-0.281
				c-0.302,0.012-0.522-0.164-0.678-0.408c-0.127-0.201-0.293-0.338-0.515-0.42c-0.259-0.094-0.401-0.281-0.436-0.561
				c-0.039-0.289-0.072-0.299-0.375-0.277c-0.097,0.008-0.206-0.033-0.296-0.078c-0.074-0.035-0.133-0.105-0.193-0.164
				c-0.227-0.221-0.311-0.23-0.579-0.068c-0.285,0.174-0.486,0.111-0.744-0.24c-0.167,0.25-0.414,0.275-0.688,0.275
				c-0.132,0-0.284,0.078-0.392,0.166c-0.633,0.508-1.39,0.695-2.158,0.854c-0.325,0.066-0.637-0.008-0.939-0.137
				c-0.262-0.113-0.521-0.246-0.795-0.314c-0.218-0.055-0.458-0.023-0.688-0.033c-0.096-0.002-0.192-0.008-0.289-0.012
				c-0.004-0.016-0.008-0.031-0.013-0.047c0.053-0.041,0.102-0.088,0.16-0.119c0.321-0.17,0.667-0.209,1.023-0.176
				c0.241,0.023,0.479,0.049,0.72,0.072c0.622,0.064,1.17-0.129,1.663-0.492c0.368-0.273,0.726-0.559,1.083-0.842
				c0.619-0.494,1.333-0.645,2.107-0.605c0.899,0.043,1.726,0.344,2.54,0.693c0.05,0.021,0.1,0.043,0.171,0.045
				c-0.172-0.242-0.35-0.48-0.511-0.729c-0.065-0.102-0.102-0.227-0.136-0.346c-0.041-0.145-0.084-0.264-0.271-0.264
				c-0.07,0-0.145-0.039-0.212-0.072c-0.254-0.117-0.315-0.242-0.3-0.586c-0.374-0.115-0.429-0.203-0.455-0.75
				c-0.023,0.002-0.048-0.002-0.071,0.004c-0.214,0.063-0.404-0.004-0.488-0.191c-0.175-0.394-0.507-0.43-0.861-0.445
				c-0.587-0.023-1.176-0.031-1.762-0.065c-0.694-0.043-1.217-0.349-1.473-1.028c-0.124-0.329-0.124-0.658-0.007-0.988
				c0.058-0.165,0.12-0.329,0.175-0.494c0.089-0.269,0.064-0.522-0.079-0.769c-0.035-0.063-0.035-0.147-0.052-0.222
				c0.078,0.008,0.167-0.002,0.235,0.029c0.362,0.165,0.482,0.485,0.485,0.85c0.001,0.29-0.039,0.58-0.06,0.871
				c-0.001,0.016-0.002,0.03-0.004,0.045c-0.028,0.531,0.194,0.757,0.722,0.688c0.471-0.062,0.938-0.167,1.407-0.249
				c1.439-0.257,2.667,0.156,3.659,1.213c0.391,0.417,0.714,0.893,1.059,1.35c0.457,0.607,0.979,1.119,1.725,1.352
				c0.495,0.154,1.003,0.217,1.517,0.189c0.883-0.047,1.715-0.27,2.462-0.754c0.497-0.324,0.939-0.711,1.258-1.219
				c0.371-0.592,0.349-1.099-0.066-1.662c-0.072-0.096-0.152-0.188-0.229-0.28c-0.076-0.093-0.153-0.186-0.232-0.276
				c-0.428-0.504-0.303-1.139-0.028-1.522c0.084-0.118,0.176-0.231,0.273-0.341c0.266-0.299,0.386-0.65,0.395-1.047
				c0.015-0.741-0.123-1.46-0.325-2.166c-0.317-1.109-0.657-2.21-0.987-3.314c-0.341-1.14-0.507-2.303-0.44-3.493
				c0.038-0.685,0.146-1.356,0.389-2.002c0.332-0.882,0.879-1.594,1.665-2.12c1.091-0.73,2.277-1.157,3.601-1.158
				c2.392,0,4.214,1.383,4.873,3.687c0.295,1.034,0.338,2.082,0.15,3.133c-0.357,2.007-0.947,3.947-1.777,5.81
				c-0.162,0.364-0.396,0.697-0.592,1.047c-0.135,0.235-0.271,0.47-0.387,0.712c-0.111,0.229-0.061,0.443,0.125,0.618
				c0.102,0.097,0.215,0.179,0.318,0.273c0.373,0.34,0.568,0.752,0.473,1.265c-0.049,0.253-0.215,0.438-0.385,0.619
				c-0.102,0.109-0.211,0.216-0.311,0.328c-0.262,0.298-0.332,0.643-0.154,0.992c0.174,0.342,0.402,0.657,0.607,0.983
				c0.014,0.02,0.035,0.037,0.045,0.059c0.205,0.377,0.547,0.561,0.938,0.676c0.785,0.234,1.582,0.422,2.402,0.463
				c0.682,0.035,1.195-0.273,1.572-0.832c0.154-0.229,0.205-0.488,0.23-0.754c0.037-0.368,0.105-0.724,0.256-1.064
				c0.348-0.784,0.965-1.211,1.791-1.362c1.113-0.202,2.217-0.11,3.283,0.248c1.051,0.354,2.072,0.786,3.043,1.329
				c0.123,0.068,0.236,0.153,0.344,0.244c0.045,0.04,0.096,0.129,0.08,0.173c-0.018,0.049-0.105,0.102-0.164,0.104
				c-0.205,0.004-0.414,0.004-0.615-0.03c-0.48-0.083-0.947-0.211-1.379-0.453c-0.314-0.178-0.65-0.317-1.016-0.357
				c-0.143-0.016-0.289-0.007-0.436-0.005c-0.439,0.009-0.881,0.082-1.314-0.067c-0.064-0.023-0.17-0.008-0.227,0.032
				c-0.168,0.125-0.338,0.132-0.523,0.057c-0.16-0.065-0.311-0.049-0.457,0.052c-0.262,0.182-0.264,0.177-0.578,0.122
				c-0.01,0.084-0.025,0.168-0.027,0.252c-0.002,0.167-0.049,0.302-0.199,0.398c-0.033,0.021-0.053,0.096-0.045,0.141
				c0.014,0.113,0.057,0.223,0.072,0.338c0.027,0.201,0.039,0.404,0.063,0.607c0.014,0.119,0.027,0.24,0.055,0.355
				c0.051,0.219,0.023,0.41-0.168,0.553c-0.117,0.088-0.139,0.184-0.107,0.338c0.029,0.135-0.006,0.301-0.063,0.434
				c-0.236,0.551-0.949,0.912-1.574,0.83c-0.254-0.033-0.512-0.051-0.766-0.051c-0.289,0.004-0.367,0.119-0.293,0.396
				c0.063,0.229,0.223,0.354,0.441,0.408c0.121,0.033,0.246,0.045,0.367,0.07c0.154,0.029,0.316,0.041,0.455,0.104
				c0.676,0.309,1.27,0.139,1.828-0.285c0.352-0.27,0.586-0.633,0.768-1.029c0.189-0.41,0.342-0.836,0.547-1.238
				c0.629-1.242,1.684-1.801,3.047-1.799c0.529,0.002,1.035,0.176,1.488,0.439c0.66,0.385,1.293,0.809,1.939,1.213
				c0.418,0.262,0.83,0.531,1.26,0.768c0.441,0.242,0.92,0.371,1.432,0.35c0.068-0.002,0.137,0.037,0.209,0.057
				c-0.031,0.07-0.047,0.148-0.094,0.209c-0.143,0.186-0.34,0.279-0.574,0.275c-0.898-0.018-1.77-0.146-2.576-0.576
				c-0.168-0.088-0.352-0.145-0.531-0.209c-0.236-0.086-0.445-0.211-0.596-0.416c-0.068-0.096-0.152-0.111-0.27-0.117
				c-0.17-0.008-0.369-0.029-0.496-0.125c-0.371-0.279-0.766-0.326-1.197-0.236c-0.033,0.008-0.072,0.02-0.105,0.012
				c-0.268-0.068-0.41,0.094-0.537,0.287c-0.148,0.225-0.33,0.398-0.598,0.355c-0.033,0.152-0.043,0.299-0.098,0.426
				c-0.096,0.219-0.225,0.424-0.332,0.639c-0.031,0.063-0.059,0.145-0.043,0.207c0.084,0.348-0.074,0.592-0.334,0.777
				c-0.145,0.104-0.232,0.23-0.277,0.393c-0.08,0.285-0.217,0.535-0.42,0.754c-0.168,0.178-0.303,0.389-0.463,0.574
				c-0.143,0.166-0.324,0.254-0.557,0.25c-0.113-0.002-0.234,0.049-0.342,0.1c-0.199,0.094-0.398,0.139-0.625,0.115
				c-0.162-0.018-0.34,0.01-0.5,0.053c-0.381,0.104-0.742,0.145-1.1-0.092c-0.102-0.066-0.262-0.041-0.396-0.063
				c-0.523-0.08-1.049-0.162-1.574-0.248c-0.094-0.016-0.182-0.059-0.307-0.1c0.016,0.1,0.008,0.199,0.045,0.273
				c0.084,0.17,0.174,0.342,0.293,0.486c0.42,0.508,0.844,1.014,1.279,1.506c0.74,0.836,1.697,1.24,2.785,1.373
				c1.027,0.125,2.029-0.039,3.031-0.25c0.639-0.137,1.283-0.23,1.924-0.359c0.666-0.133,1.326-0.307,1.875-0.732
				c0.301-0.234,0.572-0.508,0.83-0.787c0.35-0.377,0.752-0.662,1.232-0.84C44.168,32.83,44.404,32.713,44.643,32.607z"/>
		</g>
		<g>
		</g>
	</g>
</g>
</svg>
