<?xml version="1.0" encoding="utf-8"?>
<!-- Generator: Adobe Illustrator 16.0.0, SVG Export Plug-In . SVG Version: 6.00 Build 0)  -->
<!DOCTYPE svg PUBLIC "-//W3C//DTD SVG 1.1//EN" "http://www.w3.org/Graphics/SVG/1.1/DTD/svg11.dtd">
<svg version="1.1" id="Layer_1" xmlns="http://www.w3.org/2000/svg" xmlns:xlink="http://www.w3.org/1999/xlink" x="0px" y="0px"
	 width="50px" height="50px" viewBox="0 0 50 50" enable-background="new 0 0 50 50" xml:space="preserve">
<g>
	<g id="XMLID_1_">
		<g>
			<path d="M44.126,9.181c0.053,0.193-0.078,0.542-0.246,0.676c-1.609,1.28-2.156,3.161-2.784,4.975
				c-0.133,0.377,0.023,1.104,0.309,1.313c0.303,0.223,0.997,0.175,1.377-0.03c0.627-0.335,1.145-0.88,1.694-1.35
				c1.073-0.919,2.121-1.871,3.221-2.754c0.248-0.202,0.666-0.253,1.002-0.241c0.11,0.002,0.354,0.515,0.28,0.634
				c-0.158,0.253-0.487,0.402-0.74,0.6c-0.457,0.354-0.995,0.648-1.35,1.09c-2.929,3.648-3.535,7.825-2.795,12.332
				c0.655,3.981,0.593,7.929-1.034,11.708c-0.844,1.961-2.113,3.603-3.835,4.917c-1.575,1.202-3.458,1.368-5.278,1.708
				c-6.053,1.124-12.187,1.232-18.299,0.867c-3.521-0.21-7.021-0.94-10.508-1.573c-1.014-0.184-1.968-0.783-2.895-1.299
				c-0.324-0.177-0.474-0.666-0.825-1.197c0.901,0,1.52,0.085,2.101-0.023c0.733-0.135,1.469-0.36,2.145-0.676
				c1.179-0.538,2.315-1.175,3.678-1.88c-0.023-0.01-0.288-0.071-0.492-0.224c-3.531-2.569-4.595-6.17-4.11-10.311
				c0.467-3.995,2.187-7.446,5.023-10.308c3.768-3.804,10.499-5.458,15.982-0.961c3.078,2.524,5.06,5.669,6.06,9.481
				c0.047,0.172,0.1,0.343,0.149,0.513c0.108,0.037,0.217,0.071,0.324,0.105c1.676-3.474,3.497-6.887,4.976-10.446
				c0.997-2.396,2.289-4.451,4.253-6.127c0.545-0.466,0.915-1.128,1.404-1.667c0.156-0.172,0.45-0.34,0.657-0.317
				C43.781,8.745,44.07,8.981,44.126,9.181z"/>
		</g>
		<g>
		</g>
	</g>
</g>
</svg>
